<svg width="354" height="177" viewBox="0 0 354 177" fill="none" xmlns="http://www.w3.org/2000/svg">
<rect width="354" height="177" fill="#D9D9D9"/>
<path d="M35.12 51V29.31H41.03C43.17 29.31 44.99 29.64 46.49 30.3C48.01 30.96 49.23 31.83 50.15 32.91C51.07 33.99 51.74 35.19 52.16 36.51C52.6 37.81 52.82 39.11 52.82 40.41C52.82 42.05 52.53 43.52 51.95 44.82C51.39 46.12 50.61 47.23 49.61 48.15C48.61 49.07 47.46 49.78 46.16 50.28C44.88 50.76 43.52 51 42.08 51H35.12ZM38.03 48.21H41.51C42.71 48.21 43.81 48.03 44.81 47.67C45.83 47.31 46.71 46.79 47.45 46.11C48.21 45.43 48.8 44.6 49.22 43.62C49.64 42.62 49.85 41.49 49.85 40.23C49.85 38.89 49.63 37.72 49.19 36.72C48.75 35.7 48.15 34.85 47.39 34.17C46.63 33.49 45.77 32.98 44.81 32.64C43.85 32.28 42.84 32.1 41.78 32.1H38.03V48.21ZM57.0179 38.58H59.8079V51H57.0179V38.58ZM56.8079 34.08C56.8079 33.64 56.9779 33.27 57.3179 32.97C57.6779 32.67 58.0679 32.52 58.4879 32.52C58.9079 32.52 59.2779 32.67 59.5979 32.97C59.9379 33.27 60.1079 33.64 60.1079 34.08C60.1079 34.54 59.9379 34.92 59.5979 35.22C59.2779 35.5 58.9079 35.64 58.4879 35.64C58.0679 35.64 57.6779 35.49 57.3179 35.19C56.9779 34.89 56.8079 34.52 56.8079 34.08ZM68.1151 51.24C67.2351 51.24 66.3751 51.09 65.5351 50.79C64.7151 50.47 64.0351 50 63.4951 49.38L64.6651 47.76C65.1851 48.26 65.7151 48.64 66.2551 48.9C66.8151 49.14 67.3651 49.26 67.9051 49.26C68.3051 49.26 68.6751 49.21 69.0151 49.11C69.3551 49.01 69.6251 48.85 69.8251 48.63C70.0451 48.39 70.1551 48.07 70.1551 47.67C70.1551 47.23 70.0051 46.88 69.7051 46.62C69.4251 46.36 69.0551 46.15 68.5951 45.99C68.1551 45.83 67.6851 45.68 67.1851 45.54C66.1651 45.2 65.3851 44.73 64.8451 44.13C64.3051 43.53 64.0351 42.8 64.0351 41.94C64.0351 41.28 64.1951 40.67 64.5151 40.11C64.8551 39.53 65.3451 39.06 65.9851 38.7C66.6451 38.34 67.4551 38.16 68.4151 38.16C69.2751 38.16 70.0451 38.27 70.7251 38.49C71.4051 38.69 72.0451 39.03 72.6451 39.51L71.5351 41.25C71.1751 40.87 70.7451 40.59 70.2451 40.41C69.7451 40.23 69.2951 40.13 68.8951 40.11C68.5551 40.09 68.2251 40.14 67.9051 40.26C67.6051 40.38 67.3551 40.55 67.1551 40.77C66.9551 40.99 66.8551 41.25 66.8551 41.55C66.8551 41.97 66.9951 42.31 67.2751 42.57C67.5551 42.83 67.9151 43.04 68.3551 43.2C68.8151 43.34 69.2651 43.49 69.7051 43.65C70.3251 43.83 70.8751 44.07 71.3551 44.37C71.8351 44.67 72.2151 45.04 72.4951 45.48C72.7951 45.92 72.9451 46.47 72.9451 47.13C72.9451 47.87 72.7651 48.56 72.4051 49.2C72.0651 49.82 71.5351 50.32 70.8151 50.7C70.1151 51.06 69.2151 51.24 68.1151 51.24ZM82.6119 51.3C81.1919 51.3 79.9719 51.02 78.9519 50.46C77.9319 49.88 77.1419 49.1 76.5819 48.12C76.0419 47.12 75.7719 45.98 75.7719 44.7C75.7719 43.48 76.0819 42.37 76.7019 41.37C77.3219 40.37 78.1519 39.57 79.1919 38.97C80.2319 38.37 81.3919 38.07 82.6719 38.07C84.3119 38.07 85.6719 38.55 86.7519 39.51C87.8319 40.47 88.5619 41.79 88.9419 43.47L78.7119 47.07L78.0519 45.42L86.4519 42.36L85.8519 42.75C85.6119 42.09 85.2119 41.52 84.6519 41.04C84.0919 40.54 83.3619 40.29 82.4619 40.29C81.7019 40.29 81.0219 40.48 80.4219 40.86C79.8219 41.22 79.3519 41.72 79.0119 42.36C78.6719 43 78.5019 43.73 78.5019 44.55C78.5019 45.41 78.6819 46.17 79.0419 46.83C79.4019 47.47 79.8919 47.98 80.5119 48.36C81.1519 48.72 81.8719 48.9 82.6719 48.9C83.2119 48.9 83.7319 48.8 84.2319 48.6C84.7519 48.4 85.2319 48.14 85.6719 47.82L86.9619 49.89C86.3419 50.31 85.6419 50.65 84.8619 50.91C84.1019 51.17 83.3519 51.3 82.6119 51.3ZM94.9278 38.58L95.1678 41.61L95.0478 41.13C95.4478 40.21 96.0978 39.48 96.9978 38.94C97.8978 38.38 98.9378 38.1 100.118 38.1C101.298 38.1 102.258 38.45 102.998 39.15C103.758 39.83 104.148 40.72 104.168 41.82V51H101.348V42.81C101.328 42.13 101.128 41.58 100.748 41.16C100.388 40.72 99.8178 40.5 99.0378 40.5C98.3178 40.5 97.6678 40.7 97.0878 41.1C96.5078 41.5 96.0478 42.05 95.7078 42.75C95.3878 43.45 95.2278 44.26 95.2278 45.18V51H92.4378V38.58H94.9278ZM100.598 37.05C99.9578 37.05 99.4278 36.91 99.0078 36.63C98.6078 36.33 98.2278 36.02 97.8678 35.7C97.6278 35.48 97.3878 35.28 97.1478 35.1C96.9078 34.9 96.6378 34.8 96.3378 34.8C96.0978 34.8 95.8778 34.9 95.6778 35.1C95.4978 35.28 95.3578 35.54 95.2578 35.88C95.1578 36.22 95.1078 36.62 95.1078 37.08H93.6078C93.5478 36.3 93.6278 35.6 93.8478 34.98C94.0878 34.34 94.4278 33.84 94.8678 33.48C95.3278 33.12 95.8678 32.94 96.4878 32.94C97.0078 32.94 97.4578 33.09 97.8378 33.39C98.2178 33.67 98.5678 33.96 98.8878 34.26C99.1678 34.52 99.4378 34.76 99.6978 34.98C99.9578 35.18 100.238 35.28 100.538 35.28C100.938 35.28 101.218 35.07 101.378 34.65C101.558 34.23 101.648 33.66 101.648 32.94H103.148C103.228 33.78 103.158 34.51 102.938 35.13C102.738 35.75 102.428 36.23 102.008 36.57C101.588 36.89 101.118 37.05 100.598 37.05ZM107.94 44.67C107.94 43.43 108.23 42.31 108.81 41.31C109.41 40.31 110.23 39.52 111.27 38.94C112.31 38.36 113.49 38.07 114.81 38.07C116.17 38.07 117.36 38.36 118.38 38.94C119.4 39.52 120.19 40.31 120.75 41.31C121.31 42.31 121.59 43.43 121.59 44.67C121.59 45.91 121.31 47.04 120.75 48.06C120.19 49.06 119.39 49.85 118.35 50.43C117.33 51.01 116.14 51.3 114.78 51.3C113.46 51.3 112.28 51.03 111.24 50.49C110.22 49.93 109.41 49.16 108.81 48.18C108.23 47.18 107.94 46.01 107.94 44.67ZM110.73 44.7C110.73 45.5 110.91 46.23 111.27 46.89C111.63 47.53 112.11 48.04 112.71 48.42C113.33 48.8 114.01 48.99 114.75 48.99C115.53 48.99 116.22 48.8 116.82 48.42C117.44 48.04 117.92 47.53 118.26 46.89C118.6 46.23 118.77 45.5 118.77 44.7C118.77 43.9 118.6 43.18 118.26 42.54C117.92 41.88 117.44 41.36 116.82 40.98C116.22 40.58 115.53 40.38 114.75 40.38C113.99 40.38 113.3 40.58 112.68 40.98C112.08 41.38 111.6 41.91 111.24 42.57C110.9 43.21 110.73 43.92 110.73 44.7ZM137.35 38.58L137.59 41.37L137.47 41.13C137.93 40.19 138.58 39.45 139.42 38.91C140.28 38.37 141.26 38.1 142.36 38.1C143.06 38.1 143.68 38.21 144.22 38.43C144.76 38.65 145.2 38.97 145.54 39.39C145.9 39.79 146.13 40.29 146.23 40.89L146.08 40.98C146.56 40.08 147.22 39.38 148.06 38.88C148.92 38.36 149.82 38.1 150.76 38.1C151.98 38.1 152.94 38.45 153.64 39.15C154.36 39.83 154.73 40.72 154.75 41.82V51H151.96V42.81C151.94 42.17 151.78 41.64 151.48 41.22C151.2 40.78 150.7 40.54 149.98 40.5C149.26 40.5 148.61 40.72 148.03 41.16C147.47 41.6 147.03 42.17 146.71 42.87C146.39 43.55 146.22 44.29 146.2 45.09V51H143.41V42.81C143.39 42.17 143.22 41.64 142.9 41.22C142.6 40.78 142.09 40.54 141.37 40.5C140.63 40.5 139.98 40.72 139.42 41.16C138.86 41.6 138.42 42.17 138.1 42.87C137.8 43.57 137.65 44.32 137.65 45.12V51H134.86V38.58H137.35ZM158.536 44.67C158.536 43.43 158.826 42.31 159.406 41.31C160.006 40.31 160.826 39.52 161.866 38.94C162.906 38.36 164.086 38.07 165.406 38.07C166.766 38.07 167.956 38.36 168.976 38.94C169.996 39.52 170.786 40.31 171.346 41.31C171.906 42.31 172.186 43.43 172.186 44.67C172.186 45.91 171.906 47.04 171.346 48.06C170.786 49.06 169.986 49.85 168.946 50.43C167.926 51.01 166.736 51.3 165.376 51.3C164.056 51.3 162.876 51.03 161.836 50.49C160.816 49.93 160.006 49.16 159.406 48.18C158.826 47.18 158.536 46.01 158.536 44.67ZM161.326 44.7C161.326 45.5 161.506 46.23 161.866 46.89C162.226 47.53 162.706 48.04 163.306 48.42C163.926 48.8 164.606 48.99 165.346 48.99C166.126 48.99 166.816 48.8 167.416 48.42C168.036 48.04 168.516 47.53 168.856 46.89C169.196 46.23 169.366 45.5 169.366 44.7C169.366 43.9 169.196 43.18 168.856 42.54C168.516 41.88 168.036 41.36 167.416 40.98C166.816 40.58 166.126 40.38 165.346 40.38C164.586 40.38 163.896 40.58 163.276 40.98C162.676 41.38 162.196 41.91 161.836 42.57C161.496 43.21 161.326 43.92 161.326 44.7ZM177.163 33.12H179.953V38.64H183.373V40.83H179.953V51H177.163V40.83H174.883V38.64H177.163V33.12ZM186.744 38.58H189.534V51H186.744V38.58ZM186.534 34.08C186.534 33.64 186.704 33.27 187.044 32.97C187.404 32.67 187.794 32.52 188.214 32.52C188.634 32.52 189.004 32.67 189.324 32.97C189.664 33.27 189.834 33.64 189.834 34.08C189.834 34.54 189.664 34.92 189.324 35.22C189.004 35.5 188.634 35.64 188.214 35.64C187.794 35.64 187.404 35.49 187.044 35.19C186.704 34.89 186.534 34.52 186.534 34.08ZM199.402 51.36L192.502 38.58H195.802L200.482 48.45L198.772 48.39L203.062 38.58H206.182L199.552 51.36H199.402ZM213.848 51.3C212.688 51.3 211.628 51.05 210.668 50.55C209.728 50.05 208.978 49.32 208.418 48.36C207.878 47.38 207.608 46.19 207.608 44.79C207.608 43.41 207.898 42.22 208.478 41.22C209.058 40.2 209.828 39.42 210.788 38.88C211.768 38.34 212.838 38.07 213.998 38.07C215.158 38.07 216.138 38.34 216.938 38.88C217.738 39.4 218.348 40.02 218.768 40.74L218.588 41.22L218.858 38.58H221.438V51H218.648V47.76L218.948 48.48C218.868 48.68 218.688 48.94 218.408 49.26C218.148 49.56 217.788 49.87 217.328 50.19C216.888 50.51 216.378 50.78 215.798 51C215.218 51.2 214.568 51.3 213.848 51.3ZM214.598 48.99C215.298 48.99 215.928 48.86 216.488 48.6C217.048 48.34 217.508 47.98 217.868 47.52C218.248 47.04 218.508 46.47 218.648 45.81V43.38C218.488 42.78 218.208 42.26 217.808 41.82C217.408 41.36 216.928 41.01 216.368 40.77C215.808 40.51 215.188 40.38 214.508 40.38C213.768 40.38 213.088 40.56 212.468 40.92C211.848 41.28 211.348 41.78 210.968 42.42C210.608 43.06 210.428 43.81 210.428 44.67C210.428 45.47 210.618 46.2 210.998 46.86C211.378 47.52 211.888 48.04 212.528 48.42C213.168 48.8 213.858 48.99 214.598 48.99ZM236.346 49.86C235.786 50.3 235.116 50.65 234.336 50.91C233.556 51.17 232.776 51.3 231.996 51.3C230.636 51.3 229.446 51.03 228.426 50.49C227.406 49.95 226.606 49.2 226.026 48.24C225.466 47.26 225.186 46.11 225.186 44.79C225.186 43.47 225.486 42.32 226.086 41.34C226.706 40.36 227.506 39.61 228.486 39.09C229.486 38.55 230.556 38.28 231.696 38.28C232.696 38.28 233.586 38.42 234.366 38.7C235.166 38.98 235.846 39.36 236.406 39.84L235.026 41.64C234.666 41.36 234.226 41.11 233.706 40.89C233.186 40.67 232.596 40.56 231.936 40.56C231.216 40.56 230.546 40.75 229.926 41.13C229.326 41.49 228.846 41.99 228.486 42.63C228.146 43.27 227.976 43.99 227.976 44.79C227.976 45.55 228.156 46.26 228.516 46.92C228.876 47.56 229.376 48.07 230.016 48.45C230.656 48.81 231.386 48.99 232.206 48.99C232.746 48.99 233.236 48.91 233.676 48.75C234.136 48.59 234.546 48.37 234.906 48.09L236.346 49.86ZM239.948 38.58H242.738V51H239.948V38.58ZM239.738 34.08C239.738 33.64 239.908 33.27 240.248 32.97C240.608 32.67 240.998 32.52 241.418 32.52C241.838 32.52 242.208 32.67 242.528 32.97C242.868 33.27 243.038 33.64 243.038 34.08C243.038 34.54 242.868 34.92 242.528 35.22C242.208 35.5 241.838 35.64 241.418 35.64C240.998 35.64 240.608 35.49 240.248 35.19C239.908 34.89 239.738 34.52 239.738 34.08ZM246.485 44.67C246.485 43.43 246.775 42.31 247.355 41.31C247.955 40.31 248.775 39.52 249.815 38.94C250.855 38.36 252.035 38.07 253.355 38.07C254.715 38.07 255.905 38.36 256.925 38.94C257.945 39.52 258.735 40.31 259.295 41.31C259.855 42.31 260.135 43.43 260.135 44.67C260.135 45.91 259.855 47.04 259.295 48.06C258.735 49.06 257.935 49.85 256.895 50.43C255.875 51.01 254.685 51.3 253.325 51.3C252.005 51.3 250.825 51.03 249.785 50.49C248.765 49.93 247.955 49.16 247.355 48.18C246.775 47.18 246.485 46.01 246.485 44.67ZM249.275 44.7C249.275 45.5 249.455 46.23 249.815 46.89C250.175 47.53 250.655 48.04 251.255 48.42C251.875 48.8 252.555 48.99 253.295 48.99C254.075 48.99 254.765 48.8 255.365 48.42C255.985 48.04 256.465 47.53 256.805 46.89C257.145 46.23 257.315 45.5 257.315 44.7C257.315 43.9 257.145 43.18 256.805 42.54C256.465 41.88 255.985 41.36 255.365 40.98C254.765 40.58 254.075 40.38 253.295 40.38C252.535 40.38 251.845 40.58 251.225 40.98C250.625 41.38 250.145 41.91 249.785 42.57C249.445 43.21 249.275 43.92 249.275 44.7ZM266.402 38.58L266.642 41.61L266.522 41.13C266.922 40.21 267.572 39.48 268.472 38.94C269.372 38.38 270.412 38.1 271.592 38.1C272.772 38.1 273.732 38.45 274.472 39.15C275.232 39.83 275.622 40.72 275.642 41.82V51H272.822V42.81C272.802 42.13 272.602 41.58 272.222 41.16C271.862 40.72 271.292 40.5 270.512 40.5C269.792 40.5 269.142 40.7 268.562 41.1C267.982 41.5 267.522 42.05 267.182 42.75C266.862 43.45 266.702 44.26 266.702 45.18V51H263.912V38.58H266.402ZM285.654 51.3C284.494 51.3 283.434 51.05 282.474 50.55C281.534 50.05 280.784 49.32 280.224 48.36C279.684 47.38 279.414 46.19 279.414 44.79C279.414 43.41 279.704 42.22 280.284 41.22C280.864 40.2 281.634 39.42 282.594 38.88C283.574 38.34 284.644 38.07 285.804 38.07C286.964 38.07 287.944 38.34 288.744 38.88C289.544 39.4 290.154 40.02 290.574 40.74L290.394 41.22L290.664 38.58H293.244V51H290.454V47.76L290.754 48.48C290.674 48.68 290.494 48.94 290.214 49.26C289.954 49.56 289.594 49.87 289.134 50.19C288.694 50.51 288.184 50.78 287.604 51C287.024 51.2 286.374 51.3 285.654 51.3ZM286.404 48.99C287.104 48.99 287.734 48.86 288.294 48.6C288.854 48.34 289.314 47.98 289.674 47.52C290.054 47.04 290.314 46.47 290.454 45.81V43.38C290.294 42.78 290.014 42.26 289.614 41.82C289.214 41.36 288.734 41.01 288.174 40.77C287.614 40.51 286.994 40.38 286.314 40.38C285.574 40.38 284.894 40.56 284.274 40.92C283.654 41.28 283.154 41.78 282.774 42.42C282.414 43.06 282.234 43.81 282.234 44.67C282.234 45.47 282.424 46.2 282.804 46.86C283.184 47.52 283.694 48.04 284.334 48.42C284.974 48.8 285.664 48.99 286.404 48.99ZM298.073 27.78H300.863V51H298.073V27.78ZM39.59 81.3C38.43 81.3 37.37 81.05 36.41 80.55C35.47 80.05 34.72 79.32 34.16 78.36C33.62 77.38 33.35 76.19 33.35 74.79C33.35 73.41 33.64 72.22 34.22 71.22C34.8 70.2 35.57 69.42 36.53 68.88C37.51 68.34 38.58 68.07 39.74 68.07C40.9 68.07 41.88 68.34 42.68 68.88C43.48 69.4 44.09 70.02 44.51 70.74L44.33 71.22L44.6 68.58H47.18V81H44.39V77.76L44.69 78.48C44.61 78.68 44.43 78.94 44.15 79.26C43.89 79.56 43.53 79.87 43.07 80.19C42.63 80.51 42.12 80.78 41.54 81C40.96 81.2 40.31 81.3 39.59 81.3ZM40.34 78.99C41.04 78.99 41.67 78.86 42.23 78.6C42.79 78.34 43.25 77.98 43.61 77.52C43.99 77.04 44.25 76.47 44.39 75.81V73.38C44.23 72.78 43.95 72.26 43.55 71.82C43.15 71.36 42.67 71.01 42.11 70.77C41.55 70.51 40.93 70.38 40.25 70.38C39.51 70.38 38.83 70.56 38.21 70.92C37.59 71.28 37.09 71.78 36.71 72.42C36.35 73.06 36.17 73.81 36.17 74.67C36.17 75.47 36.36 76.2 36.74 76.86C37.12 77.52 37.63 78.04 38.27 78.42C38.91 78.8 39.6 78.99 40.34 78.99ZM71.5803 79.86C71.0203 80.3 70.3503 80.65 69.5703 80.91C68.7903 81.17 68.0103 81.3 67.2303 81.3C65.8703 81.3 64.6803 81.03 63.6603 80.49C62.6403 79.95 61.8403 79.2 61.2603 78.24C60.7003 77.26 60.4203 76.11 60.4203 74.79C60.4203 73.47 60.7203 72.32 61.3203 71.34C61.9403 70.36 62.7403 69.61 63.7203 69.09C64.7203 68.55 65.7903 68.28 66.9303 68.28C67.9303 68.28 68.8203 68.42 69.6003 68.7C70.4003 68.98 71.0803 69.36 71.6403 69.84L70.2603 71.64C69.9003 71.36 69.4603 71.11 68.9403 70.89C68.4203 70.67 67.8303 70.56 67.1703 70.56C66.4503 70.56 65.7803 70.75 65.1603 71.13C64.5603 71.49 64.0803 71.99 63.7203 72.63C63.3803 73.27 63.2103 73.99 63.2103 74.79C63.2103 75.55 63.3903 76.26 63.7503 76.92C64.1103 77.56 64.6103 78.07 65.2503 78.45C65.8903 78.81 66.6203 78.99 67.4403 78.99C67.9803 78.99 68.4703 78.91 68.9103 78.75C69.3703 78.59 69.7803 78.37 70.1403 78.09L71.5803 79.86ZM74.102 74.67C74.102 73.43 74.392 72.31 74.972 71.31C75.572 70.31 76.392 69.52 77.432 68.94C78.472 68.36 79.652 68.07 80.972 68.07C82.332 68.07 83.522 68.36 84.542 68.94C85.562 69.52 86.352 70.31 86.912 71.31C87.472 72.31 87.752 73.43 87.752 74.67C87.752 75.91 87.472 77.04 86.912 78.06C86.352 79.06 85.552 79.85 84.512 80.43C83.492 81.01 82.302 81.3 80.942 81.3C79.622 81.3 78.442 81.03 77.402 80.49C76.382 79.93 75.572 79.16 74.972 78.18C74.392 77.18 74.102 76.01 74.102 74.67ZM76.892 74.7C76.892 75.5 77.072 76.23 77.432 76.89C77.792 77.53 78.272 78.04 78.872 78.42C79.492 78.8 80.172 78.99 80.912 78.99C81.692 78.99 82.382 78.8 82.982 78.42C83.602 78.04 84.082 77.53 84.422 76.89C84.762 76.23 84.932 75.5 84.932 74.7C84.932 73.9 84.762 73.18 84.422 72.54C84.082 71.88 83.602 71.36 82.982 70.98C82.382 70.58 81.692 70.38 80.912 70.38C80.152 70.38 79.462 70.58 78.842 70.98C78.242 71.38 77.762 71.91 77.402 72.57C77.062 73.21 76.892 73.92 76.892 74.7ZM94.0196 68.58L94.2596 71.37L94.1396 71.13C94.5996 70.19 95.2496 69.45 96.0896 68.91C96.9496 68.37 97.9296 68.1 99.0296 68.1C99.7296 68.1 100.35 68.21 100.89 68.43C101.43 68.65 101.87 68.97 102.21 69.39C102.57 69.79 102.8 70.29 102.9 70.89L102.75 70.98C103.23 70.08 103.89 69.38 104.73 68.88C105.59 68.36 106.49 68.1 107.43 68.1C108.65 68.1 109.61 68.45 110.31 69.15C111.03 69.83 111.4 70.72 111.42 71.82V81H108.63V72.81C108.61 72.17 108.45 71.64 108.15 71.22C107.87 70.78 107.37 70.54 106.65 70.5C105.93 70.5 105.28 70.72 104.7 71.16C104.14 71.6 103.7 72.17 103.38 72.87C103.06 73.55 102.89 74.29 102.87 75.09V81H100.08V72.81C100.06 72.17 99.8896 71.64 99.5696 71.22C99.2696 70.78 98.7596 70.54 98.0396 70.5C97.2996 70.5 96.6496 70.72 96.0896 71.16C95.5296 71.6 95.0896 72.17 94.7696 72.87C94.4696 73.57 94.3196 74.32 94.3196 75.12V81H91.5296V68.58H94.0196ZM123.605 81.3C122.665 81.3 121.755 81.08 120.875 80.64C120.015 80.2 119.345 79.61 118.865 78.87L119.045 78V86.97H116.285V68.4H118.685L119.075 71.58L118.775 70.71C119.375 69.95 120.135 69.32 121.055 68.82C121.975 68.32 123.005 68.07 124.145 68.07C125.305 68.07 126.345 68.35 127.265 68.91C128.205 69.47 128.945 70.25 129.485 71.25C130.025 72.25 130.295 73.42 130.295 74.76C130.295 76.1 130.005 77.26 129.425 78.24C128.845 79.22 128.045 79.98 127.025 80.52C126.025 81.04 124.885 81.3 123.605 81.3ZM123.065 79.08C123.865 79.08 124.595 78.9 125.255 78.54C125.935 78.16 126.475 77.65 126.875 77.01C127.275 76.35 127.475 75.61 127.475 74.79C127.475 73.95 127.285 73.21 126.905 72.57C126.525 71.91 126.015 71.39 125.375 71.01C124.755 70.63 124.055 70.44 123.275 70.44C122.555 70.44 121.905 70.58 121.325 70.86C120.745 71.14 120.265 71.53 119.885 72.03C119.505 72.51 119.235 73.07 119.075 73.71V75.78C119.175 76.42 119.415 76.99 119.795 77.49C120.175 77.99 120.645 78.38 121.205 78.66C121.785 78.94 122.405 79.08 123.065 79.08ZM136.559 68.58L136.829 72.18L136.679 71.7C136.999 70.94 137.459 70.3 138.059 69.78C138.679 69.24 139.319 68.83 139.979 68.55C140.659 68.25 141.249 68.1 141.749 68.1L141.599 70.86C140.659 70.8 139.829 70.98 139.109 71.4C138.409 71.82 137.849 72.38 137.429 73.08C137.029 73.78 136.829 74.53 136.829 75.33V81H134.069V68.58H136.559ZM150.215 81.3C149.055 81.3 147.995 81.05 147.035 80.55C146.095 80.05 145.345 79.32 144.785 78.36C144.245 77.38 143.975 76.19 143.975 74.79C143.975 73.41 144.265 72.22 144.845 71.22C145.425 70.2 146.195 69.42 147.155 68.88C148.135 68.34 149.205 68.07 150.365 68.07C151.525 68.07 152.505 68.34 153.305 68.88C154.105 69.4 154.715 70.02 155.135 70.74L154.955 71.22L155.225 68.58H157.805V81H155.015V77.76L155.315 78.48C155.235 78.68 155.055 78.94 154.775 79.26C154.515 79.56 154.155 79.87 153.695 80.19C153.255 80.51 152.745 80.78 152.165 81C151.585 81.2 150.935 81.3 150.215 81.3ZM150.965 78.99C151.665 78.99 152.295 78.86 152.855 78.6C153.415 78.34 153.875 77.98 154.235 77.52C154.615 77.04 154.875 76.47 155.015 75.81V73.38C154.855 72.78 154.575 72.26 154.175 71.82C153.775 71.36 153.295 71.01 152.735 70.77C152.175 70.51 151.555 70.38 150.875 70.38C150.135 70.38 149.455 70.56 148.835 70.92C148.215 71.28 147.715 71.78 147.335 72.42C146.975 73.06 146.795 73.81 146.795 74.67C146.795 75.47 146.985 76.2 147.365 76.86C147.745 77.52 148.255 78.04 148.895 78.42C149.535 78.8 150.225 78.99 150.965 78.99Z" fill="white"/>
</svg>
