<svg width="128" height="33" viewBox="0 0 128 33" fill="none" xmlns="http://www.w3.org/2000/svg">
<path d="M45.467 7.17085C45.467 7.80842 45.3047 8.41701 44.9802 8.99662C44.6672 9.57623 44.2383 10.0863 43.6934 10.5268C43.1602 10.9557 42.5284 11.2977 41.7981 11.5527C41.0794 11.8077 40.3143 11.9352 39.5029 11.9352C39.2131 11.9352 38.9812 11.9005 38.8073 11.8309C38.645 11.7498 38.4596 11.5991 38.2509 11.3788C37.6713 12.6424 37.196 13.8074 36.8251 14.8739C36.4657 15.9287 36.1817 16.9546 35.973 17.9516C35.5325 17.8472 35.1732 17.6618 34.895 17.3951C34.6168 17.1401 34.3617 16.8155 34.1299 16.4214C34.2458 16.2012 34.3849 15.9114 34.5472 15.552C34.7095 15.1926 34.9066 14.7521 35.1384 14.2305C35.3702 13.6972 35.6369 13.0655 35.9383 12.3352C36.2513 11.5933 36.6164 10.7296 37.0337 9.74431C37.2192 9.29222 37.3815 8.89808 37.5206 8.56191C37.6597 8.22574 37.7814 7.91275 37.8857 7.62294C37.9901 7.32155 38.0828 7.02595 38.164 6.73614C38.2567 6.44634 38.3494 6.12755 38.4422 5.77979C37.8973 5.95367 37.3931 6.15653 36.9294 6.38838C36.4773 6.62022 36.1006 6.86366 35.7992 7.11868C35.6948 7.04913 35.5847 6.9448 35.4688 6.8057C35.3644 6.66659 35.2659 6.51589 35.1732 6.3536C35.0804 6.17972 34.9993 6.00584 34.9297 5.83195C34.8602 5.65807 34.8196 5.50158 34.808 5.36247C35.1442 5.13063 35.5615 4.91617 36.06 4.7191C36.5584 4.52204 37.0917 4.35395 37.6597 4.21484C38.2277 4.06415 38.8131 3.94822 39.4159 3.86708C40.0303 3.78593 40.6157 3.74536 41.1721 3.74536C41.8329 3.74536 42.4299 3.8323 42.9631 4.00619C43.4964 4.16848 43.9485 4.40032 44.3194 4.70172C44.6904 5.00311 44.9744 5.36247 45.1714 5.77979C45.3685 6.19711 45.467 6.66079 45.467 7.17085ZM42.3719 5.08426C41.9314 5.08426 41.4793 5.11903 41.0156 5.18859L41.2243 5.50158C41.1084 5.65227 40.9635 5.87832 40.7896 6.17972C40.6157 6.48112 40.4244 6.84627 40.2158 7.27518C40.0071 7.6925 39.7753 8.16198 39.5202 8.68363C39.2768 9.20528 39.016 9.75591 38.7378 10.3355C39.642 10.3355 40.465 10.2544 41.2069 10.0921C41.9488 9.9182 42.5806 9.68635 43.1022 9.39655C43.6355 9.09515 44.047 8.74739 44.3368 8.35325C44.6382 7.95912 44.7889 7.536 44.7889 7.08391C44.7889 6.48112 44.586 6.00004 44.1803 5.64068C43.7746 5.26973 43.1718 5.08426 42.3719 5.08426Z" fill="#7790EE"/>
<path d="M44.56 15.3781C44.56 15.2738 44.5658 15.1463 44.5774 14.9956C44.6006 14.8333 44.6353 14.6246 44.6817 14.3696C44.7281 14.103 44.786 13.7842 44.8556 13.4132C44.9367 13.0423 45.0353 12.596 45.1512 12.0743C45.1744 11.9584 45.2265 11.7729 45.3077 11.5179C45.3888 11.2629 45.4932 10.9963 45.6207 10.7181C45.7598 10.4283 45.9221 10.15 46.1075 9.88342C46.3046 9.6168 46.5365 9.41973 46.8031 9.29222C47.0001 9.33859 47.261 9.4603 47.5855 9.65737C47.9101 9.84285 48.1883 10.1037 48.4202 10.4398C48.1536 10.7412 47.9275 11.0426 47.742 11.344C47.5682 11.6454 47.4059 11.9584 47.2552 12.283C47.1161 12.6076 46.9828 12.9438 46.8552 13.2915C46.7393 13.6393 46.606 14.0044 46.4553 14.387C46.3278 14.7116 46.2119 15.0477 46.1075 15.3955C46.0032 15.7317 45.9453 16.0273 45.9337 16.2823C45.9337 16.491 45.9279 16.6359 45.9163 16.717C45.9163 16.8097 45.8873 16.8561 45.8293 16.8561C45.783 16.8561 45.6902 16.8271 45.5511 16.7692C45.412 16.7112 45.2671 16.6243 45.1164 16.5083C44.9773 16.3808 44.8498 16.2243 44.7339 16.0389C44.618 15.8534 44.56 15.6331 44.56 15.3781ZM47.8811 7.8316C47.8811 7.76205 47.8985 7.65772 47.9333 7.51861C47.8754 7.46065 47.8232 7.37371 47.7768 7.25779C47.742 7.14187 47.7247 7.03754 47.7247 6.9448C47.7247 6.84047 47.7362 6.70137 47.7594 6.52748C47.7942 6.34201 47.8348 6.14494 47.8811 5.93628C47.9275 5.72762 47.9855 5.51317 48.055 5.29292C48.1246 5.06107 48.1941 4.85241 48.2637 4.66694C48.4028 4.66694 48.5709 4.70751 48.7679 4.78866C48.9766 4.85821 49.1853 4.95674 49.3939 5.08426C49.6026 5.20018 49.7939 5.33349 49.9677 5.48419C50.1416 5.62329 50.2749 5.7566 50.3677 5.88412C50.2402 6.01163 50.0721 6.19131 49.8634 6.42315C49.6548 6.64341 49.4519 6.88105 49.2548 7.13607C49.0578 7.37951 48.8781 7.61135 48.7158 7.8316C48.5535 8.05185 48.4492 8.20835 48.4028 8.30109C48.2637 8.2779 48.142 8.21994 48.0376 8.1272C47.9333 8.02287 47.8811 7.92434 47.8811 7.8316Z" fill="#7790EE"/>
<path d="M49.0345 13.2915C49.4634 11.5759 49.8807 10.3239 50.2864 9.53565C50.7038 8.73579 51.1385 8.33586 51.5906 8.33586C51.9151 8.33586 52.3035 8.49236 52.7556 8.80535C52.3846 9.4661 52.0948 10.0167 51.8862 10.4572C51.6891 10.8861 51.5442 11.2803 51.4514 11.6396C51.2544 12.3352 51.0457 13.0597 50.8255 13.8132C50.6052 14.5551 50.385 15.268 50.1647 15.9519C49.9561 16.6359 49.759 17.2502 49.5735 17.7951C49.3996 18.3515 49.2605 18.7746 49.1562 19.0644C48.9012 19.7484 48.6461 20.328 48.3911 20.8032C48.1477 21.2785 47.8927 21.6669 47.626 21.9683C47.3594 22.2697 47.0812 22.4899 46.7914 22.629C46.49 22.7681 46.1654 22.8377 45.8176 22.8377C45.5626 22.8377 45.3134 22.8087 45.07 22.7507C44.8149 22.7044 44.5773 22.6348 44.357 22.5421C44.1368 22.4609 43.9397 22.3566 43.7658 22.2291C43.592 22.1016 43.4528 21.9683 43.3485 21.8292C43.3601 21.748 43.4007 21.6669 43.4702 21.5857C43.5282 21.5162 43.5862 21.4756 43.6441 21.464C43.8412 21.6727 44.0498 21.8234 44.2701 21.9161C44.4788 22.0088 44.7338 22.0552 45.0352 22.0552C45.4061 22.0552 45.7365 21.9451 46.0263 21.7248C46.3045 21.5046 46.5885 21.0757 46.8783 20.4381C47.1681 19.8121 47.4811 18.9253 47.8173 17.7777C48.1535 16.6417 48.5592 15.1463 49.0345 13.2915ZM51.8688 6.96219C51.8688 6.90423 51.8862 6.8057 51.9209 6.66659C51.7818 6.52748 51.7123 6.33042 51.7123 6.07539C51.7123 5.97106 51.7239 5.82616 51.747 5.64068C51.7818 5.45521 51.8224 5.25814 51.8688 5.04948C51.9267 4.82923 51.9847 4.60898 52.0426 4.38873C52.1122 4.16848 52.1818 3.9772 52.2513 3.81491C52.3904 3.81491 52.5585 3.85549 52.7556 3.93663C52.9642 4.00619 53.1729 4.10472 53.3815 4.23223C53.5902 4.34816 53.7815 4.48146 53.9554 4.63216C54.1292 4.77127 54.2626 4.90458 54.3553 5.03209C54.2162 5.15961 54.0423 5.33929 53.8336 5.57113C53.625 5.80297 53.4221 6.04641 53.2251 6.30144C53.028 6.54487 52.8483 6.77672 52.686 6.99697C52.5237 7.20563 52.4252 7.35632 52.3904 7.44906C52.2513 7.42588 52.1296 7.36792 52.0253 7.27518C51.9209 7.17085 51.8688 7.06652 51.8688 6.96219Z" fill="#7790EE"/>
<path d="M58.7602 9.51827C58.8761 9.51827 59.0095 9.54145 59.1602 9.58782C59.3224 9.6226 59.4673 9.67476 59.5949 9.74431C59.7224 9.80227 59.8267 9.86603 59.9079 9.93558C60.0006 10.0051 60.047 10.0689 60.047 10.1269C59.8151 10.6137 59.6007 11.1064 59.4036 11.6049C59.2065 12.0917 59.0384 12.5612 58.8993 13.0133C58.7602 13.4654 58.6501 13.8885 58.569 14.2826C58.4994 14.6768 58.4646 15.0188 58.4646 15.3086C58.4646 15.6331 58.4994 15.9056 58.569 16.1258C58.6385 16.3345 58.7544 16.4852 58.9167 16.5779C58.7776 16.6706 58.5979 16.746 58.3777 16.8039C58.1574 16.8619 57.9604 16.8909 57.7865 16.8909C57.1605 16.8909 56.8475 16.462 56.8475 15.6042C56.8475 14.9434 57.0678 14.0392 57.5083 12.8916C57.2764 13.4248 57.0098 13.9291 56.7084 14.4044C56.407 14.8681 56.0998 15.2796 55.7868 15.6389C55.4738 15.9983 55.1551 16.2939 54.8305 16.5257C54.5175 16.746 54.2277 16.8793 53.9611 16.9257C53.5322 16.9025 53.1844 16.6996 52.9178 16.3171C52.6511 15.9229 52.5178 15.4245 52.5178 14.8217C52.5178 14.1725 52.6569 13.4886 52.9352 12.7699C53.2134 12.0512 53.5669 11.3846 53.9958 10.7702C54.4363 10.1558 54.9116 9.64578 55.4217 9.24005C55.9317 8.82273 56.4244 8.60248 56.8997 8.5793C57.0156 8.61408 57.1431 8.68363 57.2822 8.78796C57.4329 8.89229 57.572 9.01401 57.6995 9.15311C57.8386 9.29222 57.9546 9.43712 58.0473 9.58782C58.14 9.72692 58.1922 9.84864 58.2038 9.95297C57.7401 10.0225 57.259 10.2486 56.7606 10.6311C56.2737 11.0137 55.8274 11.4773 55.4217 12.0222C55.0275 12.5554 54.703 13.1292 54.4479 13.7436C54.1929 14.358 54.0654 14.9318 54.0654 15.4651C54.0654 15.6853 54.1465 15.8244 54.3088 15.8824C54.645 15.8128 55.0333 15.5288 55.4738 15.0303C55.9143 14.5203 56.4476 13.7378 57.0736 12.6829C57.1895 12.4743 57.317 12.2424 57.4561 11.9874C57.6068 11.7324 57.7575 11.4658 57.9082 11.1875C58.0589 10.9093 58.2038 10.6311 58.3429 10.3529C58.4936 10.0631 58.6327 9.78489 58.7602 9.51827Z" fill="#7790EE"/>
<path d="M70.9794 11.2049C70.7939 11.2165 70.5679 11.3382 70.3013 11.5701C70.0347 11.7903 69.7449 12.0801 69.4319 12.4395C69.1305 12.7873 68.8117 13.1756 68.4755 13.6045C68.1509 14.0334 67.8321 14.4623 67.5192 14.8912C67.2178 15.3086 66.9338 15.7027 66.6671 16.0736C66.4005 16.4446 66.1745 16.7402 65.989 16.9604C65.734 16.8561 65.5137 16.7054 65.3282 16.5083C65.1428 16.2997 65.0094 16.0447 64.9283 15.7433C64.9863 15.3839 65.0674 15.013 65.1717 14.6304C65.2761 14.2363 65.4094 13.8306 65.5717 13.4132C65.7456 12.9959 65.9542 12.5612 66.1976 12.1091C66.4527 11.6454 66.7599 11.1586 67.1192 10.6485C66.9453 10.6601 66.7077 10.7876 66.4063 11.031C66.1049 11.2629 65.7803 11.5701 65.4326 11.9526C65.0848 12.3236 64.7254 12.7467 64.3545 13.222C63.9835 13.6857 63.6358 14.1435 63.3112 14.5956C62.8823 15.1984 62.5229 15.7259 62.2331 16.178C61.9549 16.6301 61.752 16.8967 61.6245 16.9778C61.3231 16.7576 61.1145 16.5199 60.9986 16.2649C60.8826 16.0099 60.7957 15.7259 60.7377 15.4129C60.7493 15.1347 60.7899 14.7869 60.8595 14.3696C60.9406 13.9523 61.0507 13.5234 61.1898 13.0829C61.4564 12.2366 61.7984 11.3962 62.2157 10.5616C62.6446 9.72692 63.0562 8.96184 63.4503 8.26631C63.7749 8.33586 64.0647 8.44599 64.3197 8.59669C64.5863 8.74739 64.8645 8.96764 65.1544 9.25744C65.0384 9.6168 64.8588 9.99934 64.6153 10.4051C64.3719 10.7992 64.1169 11.2165 63.8502 11.657C63.5836 12.0975 63.3402 12.5496 63.1199 13.0133C62.8997 13.477 62.7548 13.9465 62.6852 14.4218C63.0098 13.9581 63.3923 13.4248 63.8328 12.822C64.2849 12.2192 64.7428 11.6512 65.2065 11.118C65.6818 10.5847 66.1513 10.1327 66.615 9.7617C67.0787 9.39075 67.496 9.20528 67.8669 9.20528C68.006 9.20528 68.1567 9.22846 68.319 9.27483C68.4813 9.3212 68.632 9.37916 68.7711 9.44871C68.9102 9.51827 69.0261 9.58782 69.1189 9.65737C69.2116 9.71533 69.2638 9.7617 69.2754 9.79648C69.2174 10.0283 69.0783 10.3471 68.8581 10.7528C68.6494 11.147 68.4233 11.5643 68.1799 12.0048C67.9365 12.4453 67.7104 12.8742 67.5018 13.2915C67.2931 13.6972 67.1714 14.0218 67.1366 14.2653C67.7046 13.4886 68.2379 12.7873 68.7363 12.1613C69.2348 11.5237 69.7043 10.9789 70.1448 10.5268C70.5853 10.0747 70.991 9.72692 71.362 9.48349C71.7445 9.24005 72.1039 9.11834 72.44 9.11834C72.6719 9.11834 72.8863 9.18209 73.0834 9.30961C73.2921 9.42553 73.437 9.59941 73.5181 9.83125C73.4138 10.179 73.2399 10.5963 72.9965 11.0832C72.7646 11.5701 72.527 12.0859 72.2835 12.6308C72.0401 13.164 71.8199 13.6914 71.6228 14.2131C71.4373 14.7347 71.3446 15.2042 71.3446 15.6215C71.3446 15.865 71.3794 16.0273 71.4489 16.1084C71.5185 16.178 71.617 16.2127 71.7445 16.2127C71.8836 16.2127 72.0111 16.1896 72.127 16.1432C72.2546 16.0852 72.3473 16.0563 72.4053 16.0563C72.4748 16.1026 72.5154 16.1606 72.527 16.2301C72.5386 16.2997 72.5444 16.3634 72.5444 16.4214C72.3125 16.6069 72.0749 16.7576 71.8314 16.8735C71.588 17.001 71.3156 17.0648 71.0142 17.0648C70.736 17.0648 70.5041 17.0184 70.3187 16.9257C70.1448 16.8329 69.9999 16.7054 69.884 16.5431C69.768 16.3808 69.6869 16.1954 69.6405 15.9867C69.5942 15.778 69.571 15.552 69.571 15.3086C69.571 14.9144 69.6231 14.5261 69.7275 14.1435C69.8318 13.7494 69.9535 13.3785 70.0926 13.0307C70.2433 12.6713 70.3998 12.341 70.5621 12.0396C70.7244 11.7266 70.8635 11.4484 70.9794 11.2049Z" fill="#7790EE"/>
<path d="M80.2239 9.51827C80.3398 9.51827 80.4731 9.54145 80.6238 9.58782C80.7861 9.6226 80.931 9.67476 81.0585 9.74431C81.186 9.80227 81.2903 9.86603 81.3715 9.93558C81.4642 10.0051 81.5106 10.0689 81.5106 10.1269C81.2788 10.6137 81.0643 11.1064 80.8672 11.6049C80.6702 12.0917 80.5021 12.5612 80.363 13.0133C80.2239 13.4654 80.1137 13.8885 80.0326 14.2826C79.963 14.6768 79.9283 15.0188 79.9283 15.3086C79.9283 15.6331 79.963 15.9056 80.0326 16.1258C80.1021 16.3345 80.2181 16.4852 80.3804 16.5779C80.2413 16.6706 80.0616 16.746 79.8413 16.8039C79.6211 16.8619 79.424 16.8909 79.2501 16.8909C78.6241 16.8909 78.3112 16.462 78.3112 15.6042C78.3112 14.9434 78.5314 14.0392 78.9719 12.8916C78.7401 13.4248 78.4734 13.9291 78.1721 14.4044C77.8707 14.8681 77.5635 15.2796 77.2505 15.6389C76.9375 15.9983 76.6187 16.2939 76.2941 16.5257C75.9811 16.746 75.6913 16.8793 75.4247 16.9257C74.9958 16.9025 74.648 16.6996 74.3814 16.3171C74.1148 15.9229 73.9815 15.4245 73.9815 14.8217C73.9815 14.1725 74.1206 13.4886 74.3988 12.7699C74.677 12.0512 75.0306 11.3846 75.4595 10.7702C75.9 10.1558 76.3753 9.64578 76.8853 9.24005C77.3954 8.82273 77.888 8.60248 78.3633 8.5793C78.4792 8.61408 78.6068 8.68363 78.7459 8.78796C78.8966 8.89229 79.0357 9.01401 79.1632 9.15311C79.3023 9.29222 79.4182 9.43712 79.5109 9.58782C79.6037 9.72692 79.6558 9.84864 79.6674 9.95297C79.2038 10.0225 78.7227 10.2486 78.2242 10.6311C77.7373 11.0137 77.291 11.4773 76.8853 12.0222C76.4912 12.5554 76.1666 13.1292 75.9116 13.7436C75.6565 14.358 75.529 14.9318 75.529 15.4651C75.529 15.6853 75.6102 15.8244 75.7725 15.8824C76.1086 15.8128 76.497 15.5288 76.9375 15.0303C77.378 14.5203 77.9112 13.7378 78.5372 12.6829C78.6531 12.4743 78.7806 12.2424 78.9197 11.9874C79.0704 11.7324 79.2211 11.4658 79.3718 11.1875C79.5225 10.9093 79.6674 10.6311 79.8065 10.3529C79.9572 10.0631 80.0964 9.78489 80.2239 9.51827Z" fill="#7790EE"/>
<path d="M113.909 21.2645C111.725 20.7843 110.073 20.5519 108.953 20.5675C107.813 20.5896 107.115 20.8565 106.861 21.3683C106.678 21.7357 106.637 22.2633 106.736 22.9512C107.693 22.9033 108.48 22.8852 109.096 22.8969C109.692 22.9153 110.22 22.9731 110.679 23.0704C111.577 23.2389 112.514 23.4105 113.491 23.5853C114.455 23.7536 115.386 23.9056 116.284 24.0413C117.176 24.1901 117.982 24.3129 118.703 24.4096C119.431 24.526 119.988 24.6067 120.375 24.6517C121.292 24.748 122.092 24.7856 122.773 24.7645C123.448 24.7565 124.032 24.6864 124.523 24.5542C125.014 24.4221 125.42 24.2312 125.741 23.9814C126.068 23.7186 126.329 23.3904 126.525 22.9967C126.668 22.7081 126.776 22.4096 126.847 22.1015C126.938 21.7867 126.993 21.4786 127.012 21.1771C127.044 20.8821 127.037 20.6003 126.991 20.3317C126.944 20.0631 126.872 19.8306 126.773 19.6342C126.675 19.6017 126.56 19.6019 126.429 19.635C126.318 19.6614 126.239 19.7042 126.193 19.7633C126.319 20.1038 126.372 20.4248 126.353 20.7263C126.34 21.0147 126.249 21.3295 126.08 21.6706C125.871 22.0905 125.56 22.4024 125.148 22.6065C124.742 22.7974 124.096 22.8775 123.212 22.8466C122.34 22.8223 121.16 22.6774 119.672 22.412C118.197 22.153 116.276 21.7705 113.909 21.2645ZM105.149 20.91C105.084 20.8773 104.962 20.8416 104.785 20.8026C104.706 20.5669 104.522 20.3772 104.234 20.2337C104.116 20.1749 103.945 20.1065 103.722 20.0283C103.493 19.9633 103.247 19.8983 102.984 19.8333C102.702 19.775 102.42 19.7166 102.139 19.6582C101.85 19.613 101.594 19.584 101.372 19.5714C101.293 19.7289 101.245 19.942 101.226 20.2107C101.187 20.486 101.181 20.7777 101.208 21.0856C101.222 21.3871 101.265 21.6786 101.337 21.9602C101.397 22.2354 101.473 22.4613 101.565 22.638C101.788 22.5524 102.089 22.4567 102.469 22.351C102.849 22.2453 103.238 22.1527 103.638 22.0732C104.024 21.9872 104.388 21.9143 104.729 21.8546C105.056 21.7883 105.282 21.7616 105.407 21.7745C105.459 21.604 105.462 21.4336 105.416 21.2633C105.356 21.0865 105.267 20.9687 105.149 20.91Z" fill="#7790EE"/>
<path d="M90.1725 6.28037C91.4128 6.28037 92.343 6.426 92.9631 6.71727C93.5832 6.99914 93.8933 7.45484 93.8933 8.08435C93.8933 8.70447 93.7007 9.17896 93.3154 9.50781C92.9396 9.82727 92.5074 9.987 92.0188 9.987C91.5302 9.987 91.0886 9.86485 90.694 9.62056C90.3088 9.36687 90.041 9.03333 89.8907 8.61991C89.543 8.61991 89.2095 8.73736 88.89 8.97225C88.58 9.19775 88.3827 9.49372 88.2981 9.86015C90.1585 10.3111 91.4927 10.8373 92.3007 11.4386C93.1087 12.04 93.5127 12.8104 93.5127 13.75C93.5127 14.6896 93.0852 15.4412 92.2302 16.005C91.3846 16.5687 90.2383 16.8506 88.7914 16.8506C87.3538 16.8506 86.3344 16.6533 85.733 16.2587C85.1317 15.864 84.8311 15.3426 84.8311 14.6943C84.8311 14.046 85.0331 13.4493 85.4371 12.9044C85.6344 13.3272 86.0102 13.7077 86.5646 14.046C87.1283 14.3842 87.6827 14.5533 88.2276 14.5533C89.233 14.5533 89.8719 14.2339 90.1444 13.595C88.5847 13.3883 87.3961 12.9561 86.5787 12.2984C85.7612 11.6313 85.3525 10.8279 85.3525 9.88834C85.3525 9.25882 85.5216 8.69978 85.8599 8.2112C86.1981 7.71322 86.6303 7.33269 87.1565 7.06961C88.19 6.54345 89.1954 6.28037 90.1725 6.28037Z" fill="#7790EE"/>
<path d="M102.596 8.04207C103.733 8.04207 104.301 8.61052 104.301 9.7474C104.301 10.236 104.16 11.0628 103.878 12.2279C103.606 13.393 103.47 14.2715 103.47 14.8634C103.47 15.4553 103.568 15.8875 103.766 16.16C103.268 16.6204 102.741 16.8506 102.187 16.8506C101.107 16.8506 100.566 16.2681 100.566 15.103C100.566 14.6708 100.707 13.9379 100.989 12.9044C101.271 11.8708 101.412 11.199 101.412 10.889C101.412 10.4662 101.252 10.2548 100.933 10.2548C100.67 10.2548 100.369 10.3722 100.031 10.6071C99.6925 10.8326 99.3636 11.1427 99.0442 11.5373C98.7341 11.9225 98.471 12.4158 98.2549 13.0171C98.0388 13.6091 97.9308 14.2151 97.9308 14.8352C97.9308 15.4459 98.0294 15.8875 98.2267 16.16C97.7288 16.6204 97.2026 16.8506 96.6482 16.8506C95.5677 16.8506 95.0275 16.2681 95.0275 15.103C95.0275 14.4077 95.2154 12.9983 95.5912 10.8749C95.9107 9.00514 96.0939 7.95751 96.1409 7.73201L95.3516 6.60452C96.5261 5.91863 97.4516 5.57568 98.1281 5.57568C98.5133 5.57568 98.7858 5.65555 98.9455 5.81528C99.1052 5.96561 99.1851 6.21929 99.1851 6.57633C99.1851 7.25283 99.1193 7.9904 98.9878 8.78904C98.8563 9.58768 98.7341 10.1749 98.6214 10.5507L98.7623 10.6212C99.7676 8.90178 101.045 8.04207 102.596 8.04207Z" fill="#7790EE"/>
<path d="M112.524 9.11319C113.05 9.11319 113.501 9.32459 113.877 9.7474C114.262 10.1702 114.455 10.7856 114.455 11.5937C114.455 12.3923 114.314 13.1346 114.032 13.8205C113.75 14.497 113.379 15.0513 112.918 15.4835C112.458 15.9157 111.937 16.254 111.354 16.4983C110.772 16.7332 110.175 16.8506 109.564 16.8506C108.333 16.8506 107.361 16.5124 106.647 15.8359C105.933 15.1594 105.576 14.2621 105.576 13.144C105.576 11.6313 106.06 10.4051 107.027 9.46553C108.004 8.51656 109.245 8.04207 110.748 8.04207C111.086 8.04207 111.425 8.07966 111.763 8.15482C111.866 8.46488 111.923 8.81722 111.932 9.21184C112.129 9.14607 112.327 9.11319 112.524 9.11319ZM110.79 11.0722C110.79 10.8091 110.851 10.5132 110.974 10.1843C111.105 9.85545 111.312 9.59237 111.594 9.39506C110.353 9.65814 109.498 10.1608 109.029 10.9031C108.625 11.542 108.423 12.1997 108.423 12.8762C108.423 13.5527 108.559 14.0976 108.831 14.5111C109.113 14.9151 109.47 15.1171 109.902 15.1171C110.861 15.1171 111.537 14.4923 111.932 13.2426C111.171 12.7728 110.79 12.0494 110.79 11.0722Z" fill="#7790EE"/>
<path d="M117.356 19.3029C116.773 19.3029 116.365 19.1573 116.13 18.866C115.904 18.5841 115.791 18.1707 115.791 17.6258C115.791 17.0902 115.904 16.005 116.13 14.3701C116.365 12.7353 116.59 11.34 116.806 10.1843L116.017 9.05681C116.599 8.71857 117.102 8.46488 117.525 8.29576C117.948 8.11724 118.366 8.02798 118.779 8.02798C119.456 8.02798 119.794 8.47428 119.794 9.36687C119.794 9.48902 119.775 9.73801 119.738 10.1138L119.879 10.1843C120.151 9.50781 120.546 8.98165 121.062 8.60582C121.579 8.22059 122.185 8.02798 122.88 8.02798C123.585 8.02798 124.144 8.34743 124.558 8.98635C124.971 9.61586 125.178 10.4004 125.178 11.34C125.178 12.599 124.736 13.7453 123.853 14.7788C123.421 15.2862 122.843 15.6996 122.119 16.0191C121.396 16.3291 120.588 16.4842 119.695 16.4842C119.423 16.4842 119.066 16.4607 118.624 16.4137C118.596 16.7425 118.582 17.0479 118.582 17.3298C118.582 17.9311 118.728 18.3586 119.019 18.6123C118.493 19.0727 117.938 19.3029 117.356 19.3029ZM119.202 13.4681L118.878 15.103C120.015 15.0748 120.921 14.7037 121.598 13.9896C122.284 13.2661 122.627 12.4769 122.627 11.6219C122.627 11.1803 122.538 10.8279 122.359 10.5648C122.19 10.2924 121.941 10.1561 121.612 10.1561C120.447 10.1561 119.644 11.2601 119.202 13.4681Z" fill="#7790EE"/>
<path d="M14.5044 14.1858C14.448 14.524 14.4198 14.7824 14.4198 14.9609C14.4198 15.8723 14.5607 16.5535 14.8426 17.0045C14.2789 17.4273 13.6916 17.6387 13.0809 17.6387C12.4702 17.6387 12.0333 17.4649 11.7702 17.1172C11.5071 16.7602 11.3756 16.234 11.3756 15.5388C11.3756 14.8341 11.6715 12.8469 12.2635 9.57714L11.5165 8.06912C12.5782 7.38323 13.546 7.04028 14.4198 7.04028C14.6641 7.04028 14.9319 7.08726 15.2231 7.18122C15.5144 7.26578 15.7211 7.36444 15.8433 7.47719C16.5385 7.20471 17.1822 7.06847 17.7741 7.06847C18.6573 7.06847 19.3526 7.37853 19.86 7.99865C20.3767 8.60938 20.6351 9.35164 20.6351 10.2254C20.6351 11.2778 20.2546 12.2173 19.4935 13.0442C19.1271 13.4482 18.6338 13.7723 18.0137 14.0166C17.3936 14.2609 16.7593 14.3831 16.111 14.3831C15.4721 14.3831 14.9366 14.3173 14.5044 14.1858ZM14.7721 12.5791C14.9037 12.6073 15.0399 12.6214 15.1809 12.6214C15.7822 12.6214 16.3177 12.41 16.7875 11.9872C17.2573 11.5643 17.4922 11.0429 17.4922 10.4228C17.4922 9.99055 17.3654 9.62412 17.1117 9.32345C16.8674 9.02279 16.5198 8.87246 16.0688 8.87246C15.8808 8.87246 15.6647 8.91004 15.4205 8.98521C15.2325 10.2724 15.0164 11.4704 14.7721 12.5791Z" fill="#7790EE"/>
<path d="M9.63089 11.7637C10.0282 11.8818 10.345 12.0536 10.5812 12.2791C10.8174 12.4939 11.0268 12.8053 11.2094 13.2133C9.39465 13.4818 8.11683 13.8683 7.37591 14.373C6.63499 14.8777 6.26452 15.5971 6.26452 16.5313C6.26452 17.1219 6.43096 17.6374 6.76384 18.0776C7.09672 18.5071 7.5155 18.8347 8.02019 19.0602C9.00809 19.4789 9.97988 19.6883 10.9356 19.6883C13.6523 19.6883 15.0106 19.1031 15.0106 17.9327C15.0106 17.3421 14.7476 16.7515 14.2214 16.1609C13.9529 16.5367 13.5503 16.8589 13.0134 17.1273C12.4657 17.3958 11.9342 17.53 11.4188 17.53C10.5275 17.53 9.99062 17.138 9.80807 16.3542C11.4402 16.1609 12.6214 15.7958 13.3516 15.2589C14.0818 14.722 14.4469 13.965 14.4469 12.9878C14.4469 12.2147 14.1945 11.565 13.6899 11.0389C13.1744 10.5127 12.5409 10.1476 11.7892 9.94357C11.0268 9.72881 10.1732 9.62143 9.22822 9.62143C8.27253 9.62143 7.48866 9.80398 6.87659 10.1691C6.25379 10.5234 5.94238 10.9583 5.94238 11.4737C5.94238 11.9892 6.12493 12.3865 6.49002 12.6657C6.84438 12.9448 7.23631 13.0844 7.66583 13.0844C8.08462 13.0844 8.47119 12.9717 8.82554 12.7462C9.16916 12.5207 9.43761 12.1932 9.63089 11.7637Z" fill="#7790EE"/>
<path d="M25.7096 13.3548C25.7096 20.1782 20.1782 25.7096 13.3548 25.7096C6.53144 25.7096 1 20.1782 1 13.3548C1 6.53144 6.53144 1 13.3548 1C20.1782 1 25.7096 6.53144 25.7096 13.3548Z" stroke="#7790EE" stroke-width="2"/>
</svg>
