<svg width="215" height="312" viewBox="0 0 215 312" fill="none" xmlns="http://www.w3.org/2000/svg">
<rect width="215" height="312" rx="25" fill="#788195"/>
<path d="M36.4082 262V252.006H37.1123V261.357H41.8701V262H36.4082ZM49.5742 258.274C49.5742 258.849 49.5036 259.373 49.3623 259.847C49.221 260.316 49.0114 260.722 48.7334 261.063C48.4554 261.405 48.109 261.67 47.6943 261.856C47.2842 262.043 46.8057 262.137 46.2588 262.137C45.7393 262.137 45.2767 262.046 44.8711 261.863C44.4655 261.676 44.1214 261.412 43.8389 261.07C43.5609 260.729 43.349 260.323 43.2031 259.854C43.0573 259.38 42.9844 258.853 42.9844 258.274C42.9844 257.477 43.1165 256.791 43.3809 256.217C43.6497 255.638 44.0326 255.196 44.5293 254.891C45.0306 254.581 45.6299 254.426 46.3271 254.426C47.0472 254.426 47.6465 254.59 48.125 254.918C48.6081 255.242 48.9704 255.693 49.2119 256.271C49.4535 256.85 49.5742 257.518 49.5742 258.274ZM43.6953 258.274C43.6953 258.926 43.7887 259.496 43.9756 259.983C44.1624 260.471 44.445 260.852 44.8232 261.125C45.2061 261.398 45.6891 261.535 46.2725 261.535C46.8695 261.535 47.3594 261.398 47.7422 261.125C48.125 260.852 48.4076 260.469 48.5898 259.977C48.7721 259.484 48.8633 258.917 48.8633 258.274C48.8633 257.65 48.7767 257.094 48.6035 256.606C48.4303 256.119 48.1569 255.736 47.7832 255.458C47.4095 255.175 46.9219 255.034 46.3203 255.034C45.459 255.034 44.805 255.321 44.3584 255.896C43.9163 256.47 43.6953 257.263 43.6953 258.274ZM54.585 254.439C54.7809 254.439 54.9655 254.451 55.1387 254.474C55.3118 254.496 55.4736 254.528 55.624 254.569L55.5146 255.205C55.3643 255.164 55.2116 255.134 55.0566 255.116C54.9017 255.093 54.7354 255.082 54.5576 255.082C54.2067 255.082 53.8923 255.148 53.6143 255.28C53.3408 255.412 53.1084 255.602 52.917 255.848C52.7256 256.094 52.5798 256.39 52.4795 256.736C52.3792 257.083 52.3291 257.47 52.3291 257.898V262H51.6318V254.569H52.2266L52.2949 255.971H52.3359C52.4499 255.684 52.6094 255.426 52.8145 255.198C53.0241 254.966 53.277 254.781 53.5732 254.645C53.8695 254.508 54.2067 254.439 54.585 254.439ZM59.8965 254.426C60.5299 254.426 61.0563 254.574 61.4756 254.87C61.8994 255.166 62.2139 255.572 62.4189 256.087C62.6286 256.602 62.7334 257.192 62.7334 257.857V258.356H57.3672C57.3672 259.377 57.6019 260.161 58.0713 260.708C58.5452 261.255 59.222 261.528 60.1016 261.528C60.5618 261.528 60.9606 261.492 61.2979 261.419C61.6396 261.341 62.0179 261.212 62.4326 261.029V261.665C62.068 261.829 61.7035 261.948 61.3389 262.021C60.9743 262.098 60.555 262.137 60.0811 262.137C59.3291 262.137 58.6979 261.982 58.1875 261.672C57.6816 261.357 57.2988 260.915 57.0391 260.346C56.7839 259.776 56.6562 259.111 56.6562 258.35C56.6562 257.607 56.7793 256.939 57.0254 256.347C57.276 255.754 57.6406 255.287 58.1191 254.945C58.6022 254.599 59.1947 254.426 59.8965 254.426ZM59.8896 255.021C59.1787 255.021 58.6022 255.257 58.1602 255.731C57.7227 256.201 57.4652 256.88 57.3877 257.769H62.0156C62.0156 257.226 61.9382 256.748 61.7832 256.333C61.6283 255.918 61.3936 255.597 61.0791 255.369C60.7692 255.137 60.3727 255.021 59.8896 255.021ZM72.4473 254.426C73.1628 254.426 73.7279 254.633 74.1426 255.048C74.5573 255.463 74.7646 256.117 74.7646 257.01V262H74.0879V257.037C74.0879 256.349 73.9307 255.843 73.6162 255.52C73.3018 255.196 72.887 255.034 72.3721 255.034C71.6657 255.034 71.112 255.242 70.7109 255.656C70.3145 256.066 70.1162 256.714 70.1162 257.598V262H69.4326V257.037C69.4326 256.577 69.3597 256.201 69.2139 255.909C69.0726 255.613 68.8743 255.394 68.6191 255.253C68.3639 255.107 68.0632 255.034 67.7168 255.034C67.2565 255.034 66.8577 255.13 66.5205 255.321C66.1833 255.508 65.9235 255.8 65.7412 256.196C65.5589 256.588 65.4678 257.087 65.4678 257.693V262H64.7773V254.569H65.3379L65.4404 255.786H65.4814C65.6045 255.545 65.7686 255.321 65.9736 255.116C66.1787 254.911 66.4316 254.745 66.7324 254.617C67.0378 254.49 67.3955 254.426 67.8057 254.426C68.3389 254.426 68.79 254.547 69.1592 254.788C69.5329 255.025 69.7926 255.378 69.9385 255.848H69.9863C70.1868 255.401 70.4967 255.052 70.916 254.802C71.3398 254.551 71.8503 254.426 72.4473 254.426ZM80.9648 262V252.006H81.6689V262H80.9648ZM87.6094 254.426C88.5664 254.426 89.307 254.747 89.8311 255.39C90.3597 256.032 90.624 256.98 90.624 258.233C90.624 259.072 90.4987 259.783 90.248 260.366C89.9974 260.945 89.6396 261.385 89.1748 261.686C88.7145 261.986 88.1608 262.137 87.5137 262.137C87.0671 262.137 86.6774 262.071 86.3447 261.938C86.0166 261.802 85.7432 261.619 85.5244 261.392C85.3057 261.159 85.137 260.904 85.0186 260.626H84.9707C84.9844 260.886 84.9958 261.157 85.0049 261.439C85.014 261.722 85.0186 261.989 85.0186 262.239V265.288H84.3213V254.569H84.8955L84.9775 256.053H85.0186C85.1416 255.77 85.3148 255.504 85.5381 255.253C85.7614 255.002 86.0439 254.802 86.3857 254.651C86.7275 254.501 87.1354 254.426 87.6094 254.426ZM87.5205 255.034C86.96 255.034 86.4928 255.157 86.1191 255.403C85.75 255.645 85.4743 256 85.292 256.47C85.1143 256.935 85.0231 257.504 85.0186 258.179V258.295C85.0186 259.02 85.1074 259.623 85.2852 260.106C85.4674 260.585 85.7386 260.943 86.0986 261.18C86.4632 261.417 86.9144 261.535 87.4521 261.535C87.9808 261.535 88.4274 261.405 88.792 261.146C89.1566 260.886 89.4346 260.51 89.626 260.018C89.8174 259.525 89.9131 258.928 89.9131 258.227C89.9131 257.183 89.7126 256.39 89.3115 255.848C88.915 255.305 88.318 255.034 87.5205 255.034ZM97.3027 260.052C97.3027 260.494 97.1911 260.872 96.9678 261.187C96.749 261.496 96.4277 261.733 96.0039 261.897C95.5801 262.057 95.0583 262.137 94.4385 262.137C93.9235 262.137 93.4632 262.091 93.0576 262C92.652 261.909 92.3125 261.797 92.0391 261.665V260.981C92.3809 261.15 92.7591 261.287 93.1738 261.392C93.5885 261.496 94.0146 261.549 94.4521 261.549C95.2178 261.549 95.7692 261.419 96.1064 261.159C96.4437 260.899 96.6123 260.544 96.6123 260.093C96.6123 259.797 96.528 259.553 96.3594 259.361C96.1953 259.165 95.9583 258.997 95.6484 258.855C95.3385 258.714 94.9648 258.571 94.5273 258.425C94.0716 258.27 93.666 258.117 93.3105 257.967C92.9596 257.812 92.6839 257.609 92.4834 257.358C92.2829 257.103 92.1826 256.757 92.1826 256.319C92.1826 255.722 92.4219 255.257 92.9004 254.925C93.3789 254.592 94.0215 254.426 94.8281 254.426C95.2747 254.426 95.6895 254.469 96.0723 254.556C96.4596 254.638 96.8105 254.745 97.125 254.877L96.8789 255.465C96.5964 255.333 96.2705 255.226 95.9014 255.144C95.5322 255.062 95.1631 255.021 94.7939 255.021C94.1878 255.021 93.7139 255.128 93.3721 255.342C93.0303 255.556 92.8594 255.87 92.8594 256.285C92.8594 256.604 92.9414 256.855 93.1055 257.037C93.2695 257.215 93.5042 257.365 93.8096 257.488C94.1149 257.607 94.4772 257.739 94.8965 257.885C95.3294 258.035 95.7282 258.192 96.0928 258.356C96.4619 258.521 96.7559 258.732 96.9746 258.992C97.1934 259.252 97.3027 259.605 97.3027 260.052ZM104.952 254.569V262H104.392L104.289 260.66H104.248C104.12 260.934 103.94 261.182 103.708 261.405C103.476 261.629 103.191 261.806 102.854 261.938C102.516 262.071 102.124 262.137 101.678 262.137C101.108 262.137 100.63 262.039 100.242 261.843C99.8594 261.642 99.57 261.341 99.374 260.94C99.1781 260.539 99.0801 260.038 99.0801 259.437V254.569H99.7705V259.368C99.7705 260.111 99.9368 260.658 100.27 261.009C100.607 261.36 101.099 261.535 101.746 261.535C102.293 261.535 102.751 261.43 103.12 261.221C103.494 261.011 103.776 260.694 103.968 260.271C104.164 259.842 104.262 259.309 104.262 258.671V254.569H104.952ZM115.117 254.426C115.833 254.426 116.398 254.633 116.812 255.048C117.227 255.463 117.435 256.117 117.435 257.01V262H116.758V257.037C116.758 256.349 116.601 255.843 116.286 255.52C115.972 255.196 115.557 255.034 115.042 255.034C114.336 255.034 113.782 255.242 113.381 255.656C112.984 256.066 112.786 256.714 112.786 257.598V262H112.103V257.037C112.103 256.577 112.03 256.201 111.884 255.909C111.743 255.613 111.544 255.394 111.289 255.253C111.034 255.107 110.733 255.034 110.387 255.034C109.926 255.034 109.528 255.13 109.19 255.321C108.853 255.508 108.593 255.8 108.411 256.196C108.229 256.588 108.138 257.087 108.138 257.693V262H107.447V254.569H108.008L108.11 255.786H108.151C108.274 255.545 108.438 255.321 108.644 255.116C108.849 254.911 109.102 254.745 109.402 254.617C109.708 254.49 110.065 254.426 110.476 254.426C111.009 254.426 111.46 254.547 111.829 254.788C112.203 255.025 112.463 255.378 112.608 255.848H112.656C112.857 255.401 113.167 255.052 113.586 254.802C114.01 254.551 114.52 254.426 115.117 254.426ZM132.043 256.989C132.043 257.75 131.95 258.445 131.763 259.074C131.576 259.703 131.296 260.245 130.922 260.701C130.548 261.157 130.081 261.51 129.521 261.761C128.965 262.011 128.315 262.137 127.572 262.137C126.825 262.137 126.171 262.011 125.61 261.761C125.05 261.51 124.583 261.157 124.209 260.701C123.84 260.241 123.562 259.696 123.375 259.067C123.188 258.434 123.095 257.737 123.095 256.976C123.095 255.964 123.266 255.073 123.607 254.303C123.954 253.533 124.462 252.931 125.132 252.498C125.806 252.065 126.638 251.849 127.627 251.849C128.575 251.849 129.377 252.056 130.033 252.471C130.694 252.881 131.193 253.471 131.53 254.241C131.872 255.007 132.043 255.923 132.043 256.989ZM123.833 256.982C123.833 257.876 123.967 258.664 124.236 259.348C124.505 260.027 124.918 260.558 125.474 260.94C126.03 261.323 126.731 261.515 127.579 261.515C128.436 261.515 129.14 261.326 129.691 260.947C130.243 260.569 130.651 260.04 130.915 259.361C131.179 258.682 131.312 257.892 131.312 256.989C131.312 255.563 130.999 254.455 130.375 253.667C129.755 252.879 128.839 252.484 127.627 252.484C126.775 252.484 126.066 252.674 125.501 253.052C124.94 253.43 124.521 253.956 124.243 254.631C123.97 255.305 123.833 256.089 123.833 256.982ZM135.782 262L132.932 254.569H133.663L135.57 259.635C135.689 259.94 135.794 260.234 135.885 260.517C135.98 260.795 136.06 261.048 136.124 261.275H136.158C136.231 261.048 136.313 260.792 136.404 260.51C136.5 260.227 136.605 259.936 136.719 259.635L138.626 254.569H139.364L136.507 262H135.782ZM143.418 254.426C144.051 254.426 144.578 254.574 144.997 254.87C145.421 255.166 145.735 255.572 145.94 256.087C146.15 256.602 146.255 257.192 146.255 257.857V258.356H140.889C140.889 259.377 141.123 260.161 141.593 260.708C142.067 261.255 142.743 261.528 143.623 261.528C144.083 261.528 144.482 261.492 144.819 261.419C145.161 261.341 145.539 261.212 145.954 261.029V261.665C145.59 261.829 145.225 261.948 144.86 262.021C144.496 262.098 144.076 262.137 143.603 262.137C142.851 262.137 142.219 261.982 141.709 261.672C141.203 261.357 140.82 260.915 140.561 260.346C140.305 259.776 140.178 259.111 140.178 258.35C140.178 257.607 140.301 256.939 140.547 256.347C140.798 255.754 141.162 255.287 141.641 254.945C142.124 254.599 142.716 254.426 143.418 254.426ZM143.411 255.021C142.7 255.021 142.124 255.257 141.682 255.731C141.244 256.201 140.987 256.88 140.909 257.769H145.537C145.537 257.226 145.46 256.748 145.305 256.333C145.15 255.918 144.915 255.597 144.601 255.369C144.291 255.137 143.894 255.021 143.411 255.021ZM151.259 254.439C151.455 254.439 151.639 254.451 151.812 254.474C151.986 254.496 152.147 254.528 152.298 254.569L152.188 255.205C152.038 255.164 151.885 255.134 151.73 255.116C151.576 255.093 151.409 255.082 151.231 255.082C150.881 255.082 150.566 255.148 150.288 255.28C150.015 255.412 149.782 255.602 149.591 255.848C149.399 256.094 149.254 256.39 149.153 256.736C149.053 257.083 149.003 257.47 149.003 257.898V262H148.306V254.569H148.9L148.969 255.971H149.01C149.124 255.684 149.283 255.426 149.488 255.198C149.698 254.966 149.951 254.781 150.247 254.645C150.543 254.508 150.881 254.439 151.259 254.439ZM155.764 261.542C155.978 261.542 156.176 261.526 156.358 261.494C156.545 261.462 156.709 261.421 156.851 261.371V261.945C156.705 261.995 156.534 262.039 156.338 262.075C156.142 262.116 155.925 262.137 155.688 262.137C155.269 262.137 154.921 262.059 154.643 261.904C154.365 261.745 154.155 261.506 154.014 261.187C153.872 260.863 153.802 260.453 153.802 259.956V255.144H152.694V254.733L153.795 254.521L154.034 252.771H154.492V254.569H156.81V255.144H154.492V259.915C154.492 260.448 154.59 260.854 154.786 261.132C154.987 261.405 155.312 261.542 155.764 261.542ZM159.134 254.569V262H158.443V254.569H159.134ZM158.799 251.821C158.972 251.821 159.1 251.874 159.182 251.979C159.264 252.079 159.305 252.215 159.305 252.389C159.305 252.562 159.264 252.699 159.182 252.799C159.1 252.899 158.972 252.949 158.799 252.949C158.635 252.949 158.512 252.899 158.43 252.799C158.348 252.699 158.307 252.562 158.307 252.389C158.307 252.215 158.348 252.079 158.43 251.979C158.512 251.874 158.635 251.821 158.799 251.821ZM169.285 254.426C170.001 254.426 170.566 254.633 170.98 255.048C171.395 255.463 171.603 256.117 171.603 257.01V262H170.926V257.037C170.926 256.349 170.769 255.843 170.454 255.52C170.14 255.196 169.725 255.034 169.21 255.034C168.504 255.034 167.95 255.242 167.549 255.656C167.152 256.066 166.954 256.714 166.954 257.598V262H166.271V257.037C166.271 256.577 166.198 256.201 166.052 255.909C165.91 255.613 165.712 255.394 165.457 255.253C165.202 255.107 164.901 255.034 164.555 255.034C164.094 255.034 163.696 255.13 163.358 255.321C163.021 255.508 162.761 255.8 162.579 256.196C162.397 256.588 162.306 257.087 162.306 257.693V262H161.615V254.569H162.176L162.278 255.786H162.319C162.442 255.545 162.606 255.321 162.812 255.116C163.017 254.911 163.27 254.745 163.57 254.617C163.876 254.49 164.233 254.426 164.644 254.426C165.177 254.426 165.628 254.547 165.997 254.788C166.371 255.025 166.631 255.378 166.776 255.848H166.824C167.025 255.401 167.335 255.052 167.754 254.802C168.178 254.551 168.688 254.426 169.285 254.426ZM176.805 254.426C177.438 254.426 177.965 254.574 178.384 254.87C178.808 255.166 179.122 255.572 179.327 256.087C179.537 256.602 179.642 257.192 179.642 257.857V258.356H174.275C174.275 259.377 174.51 260.161 174.979 260.708C175.453 261.255 176.13 261.528 177.01 261.528C177.47 261.528 177.869 261.492 178.206 261.419C178.548 261.341 178.926 261.212 179.341 261.029V261.665C178.976 261.829 178.612 261.948 178.247 262.021C177.882 262.098 177.463 262.137 176.989 262.137C176.237 262.137 175.606 261.982 175.096 261.672C174.59 261.357 174.207 260.915 173.947 260.346C173.692 259.776 173.564 259.111 173.564 258.35C173.564 257.607 173.688 256.939 173.934 256.347C174.184 255.754 174.549 255.287 175.027 254.945C175.51 254.599 176.103 254.426 176.805 254.426ZM176.798 255.021C176.087 255.021 175.51 255.257 175.068 255.731C174.631 256.201 174.373 256.88 174.296 257.769H178.924C178.924 257.226 178.846 256.748 178.691 256.333C178.536 255.918 178.302 255.597 177.987 255.369C177.677 255.137 177.281 255.021 176.798 255.021Z" fill="white"/>
<rect x="57" y="278" width="94" height="18" rx="9" fill="white"/>
<path d="M74.978 290.054L74.488 288.64C74.0027 288.64 73.5127 288.565 73.018 288.416C72.9153 289.013 72.864 289.443 72.864 289.704C72.864 290.609 73.004 291.286 73.284 291.734C72.724 292.154 72.1407 292.364 71.534 292.364C70.9273 292.364 70.4933 292.191 70.232 291.846C69.9707 291.491 69.84 290.969 69.84 290.278C69.84 289.578 70.134 287.604 70.722 284.356L69.98 282.858C71.0253 282.186 71.9867 281.85 72.864 281.85C73.536 281.85 74.054 281.99 74.418 282.27C75.118 281.99 75.748 281.85 76.308 281.85C77.1667 281.85 77.848 282.139 78.352 282.718C78.856 283.297 79.108 283.992 79.108 284.804C79.108 285.411 78.954 285.999 78.646 286.568C78.338 287.128 77.8853 287.585 77.288 287.94C77.6053 288.845 77.96 289.625 78.352 290.278C78.7533 290.931 79.15 291.365 79.542 291.58C79.346 291.785 79.0427 291.963 78.632 292.112C78.2307 292.271 77.8667 292.35 77.54 292.35C76.9053 292.35 76.3967 292.191 76.014 291.874C75.6313 291.547 75.286 290.941 74.978 290.054ZM73.634 286.89C74.3807 286.89 74.9593 286.699 75.37 286.316C75.79 285.933 76 285.523 76 285.084C76 284.645 75.8787 284.295 75.636 284.034C75.3933 283.773 75.048 283.642 74.6 283.642C74.3573 283.642 74.1147 283.675 73.872 283.74C73.5733 285.523 73.3867 286.568 73.312 286.876C73.3773 286.885 73.4847 286.89 73.634 286.89ZM80.1076 289.718C80.1076 289.186 80.2336 288.248 80.4856 286.904C80.7376 285.56 80.8916 284.711 80.9476 284.356L80.2056 282.858C81.3909 282.186 82.3989 281.85 83.2296 281.85C83.6402 281.85 83.9482 281.99 84.1536 282.27C84.9282 281.999 85.6422 281.864 86.2956 281.864C87.5089 281.864 88.4516 282.261 89.1236 283.054C89.7956 283.838 90.1316 284.818 90.1316 285.994C90.1316 287.543 89.5622 288.967 88.4236 290.264C87.8729 290.889 87.1449 291.393 86.2396 291.776C85.3436 292.159 84.3822 292.35 83.3556 292.35C82.3289 292.35 81.5309 292.126 80.9616 291.678C80.3922 291.221 80.1076 290.567 80.1076 289.718ZM83.0756 290.25C83.2716 290.287 83.4909 290.306 83.7336 290.306C84.7509 290.306 85.5442 289.942 86.1136 289.214C86.6829 288.477 86.9676 287.571 86.9676 286.498C86.9676 285.63 86.7716 284.939 86.3796 284.426C85.9876 283.913 85.4229 283.656 84.6856 283.656C84.5736 283.656 84.3869 283.675 84.1256 283.712C84.0602 284.188 83.8876 285.252 83.6076 286.904C83.3369 288.547 83.1596 289.662 83.0756 290.25ZM93.9307 292.014C92.8574 291.958 92.1014 291.762 91.6627 291.426C91.2241 291.081 91.0047 290.623 91.0047 290.054C91.0047 289.485 91.1401 288.929 91.4107 288.388C91.7374 288.743 92.1807 289.046 92.7407 289.298C93.3101 289.541 93.8607 289.662 94.3927 289.662C95.1674 289.662 95.6434 289.405 95.8207 288.892C95.0927 288.789 94.4534 288.631 93.9027 288.416C93.3614 288.201 92.9461 287.982 92.6567 287.758C92.3674 287.525 92.1341 287.268 91.9567 286.988C91.7887 286.708 91.6814 286.475 91.6347 286.288C91.5974 286.101 91.5787 285.915 91.5787 285.728C91.5787 284.757 91.9101 284.025 92.5727 283.53C93.2354 283.035 94.0707 282.732 95.0787 282.62C95.2001 282.107 95.2607 281.715 95.2607 281.444C95.2607 281.173 95.2514 280.963 95.2327 280.814C95.7367 280.31 96.1381 280.058 96.4367 280.058C96.7074 280.058 96.8427 280.296 96.8427 280.772C96.8427 281.248 96.7167 281.85 96.4647 282.578C98.4154 282.653 99.3907 283.199 99.3907 284.216C99.3907 284.748 99.2741 285.219 99.0407 285.63C98.4527 285.247 97.5614 285.056 96.3667 285.056C95.4334 285.056 94.9387 285.35 94.8827 285.938C96.1334 286.181 97.0154 286.414 97.5287 286.638C98.0421 286.853 98.4154 287.067 98.6487 287.282C99.1621 287.758 99.4187 288.355 99.4187 289.074C99.4187 289.933 99.0174 290.614 98.2147 291.118C97.4214 291.622 96.4601 291.921 95.3307 292.014C95.2094 292.546 95.1487 292.971 95.1487 293.288C95.1487 293.615 95.1674 293.848 95.2047 293.988C94.7474 294.473 94.3554 294.716 94.0287 294.716C93.7301 294.716 93.5807 294.459 93.5807 293.946C93.5807 293.433 93.6974 292.789 93.9307 292.014ZM102.788 289.97C102.788 289.391 102.984 288.122 103.376 286.162C102.741 286.162 102.195 285.985 101.738 285.63C101.29 285.275 101.019 284.725 100.926 283.978C101.682 283.829 102.396 283.605 103.068 283.306C103.749 282.998 104.318 282.737 104.776 282.522C105.233 282.307 105.644 282.2 106.008 282.2C106.67 282.2 107.002 282.573 107.002 283.32C107.002 283.777 106.82 284.841 106.456 286.512C106.092 288.173 105.91 289.363 105.91 290.082C105.91 290.791 106.045 291.375 106.316 291.832C105.69 292.177 105.093 292.35 104.524 292.35C103.366 292.35 102.788 291.557 102.788 289.97ZM109.008 287.87C109.008 286.171 109.522 284.804 110.548 283.768C111.575 282.723 112.914 282.2 114.566 282.2C115.042 282.2 115.42 282.27 115.7 282.41C115.784 282.503 115.84 282.727 115.868 283.082C116.624 283.259 117.18 283.665 117.534 284.3C117.898 284.935 118.08 285.728 118.08 286.68C118.08 288.332 117.586 289.69 116.596 290.754C115.616 291.818 114.468 292.35 113.152 292.35C111.836 292.35 110.814 291.939 110.086 291.118C109.368 290.297 109.008 289.214 109.008 287.87ZM111.752 288.08C111.752 288.752 111.874 289.303 112.116 289.732C112.368 290.152 112.742 290.362 113.236 290.362C113.731 290.362 114.184 289.984 114.594 289.228C115.014 288.463 115.224 287.613 115.224 286.68C115.224 285.336 114.664 284.664 113.544 284.664C113.367 284.664 113.148 284.687 112.886 284.734C112.13 285.714 111.752 286.829 111.752 288.08ZM119.618 287.87C119.618 286.171 120.131 284.804 121.158 283.768C122.184 282.723 123.524 282.2 125.176 282.2C125.652 282.2 126.03 282.27 126.31 282.41C126.394 282.503 126.45 282.727 126.478 283.082C127.234 283.259 127.789 283.665 128.144 284.3C128.508 284.935 128.69 285.728 128.69 286.68C128.69 288.332 128.195 289.69 127.206 290.754C126.226 291.818 125.078 292.35 123.762 292.35C122.446 292.35 121.424 291.939 120.696 291.118C119.977 290.297 119.618 289.214 119.618 287.87ZM122.362 288.08C122.362 288.752 122.483 289.303 122.726 289.732C122.978 290.152 123.351 290.362 123.846 290.362C124.34 290.362 124.793 289.984 125.204 289.228C125.624 288.463 125.834 287.613 125.834 286.68C125.834 285.336 125.274 284.664 124.154 284.664C123.976 284.664 123.757 284.687 123.496 284.734C122.74 285.714 122.362 286.829 122.362 288.08ZM130.227 287.87C130.227 286.171 130.74 284.804 131.767 283.768C132.794 282.723 134.133 282.2 135.785 282.2C136.261 282.2 136.639 282.27 136.919 282.41C137.003 282.503 137.059 282.727 137.087 283.082C137.843 283.259 138.398 283.665 138.753 284.3C139.117 284.935 139.299 285.728 139.299 286.68C139.299 288.332 138.804 289.69 137.815 290.754C136.835 291.818 135.687 292.35 134.371 292.35C133.055 292.35 132.033 291.939 131.305 291.118C130.586 290.297 130.227 289.214 130.227 287.87ZM132.971 288.08C132.971 288.752 133.092 289.303 133.335 289.732C133.587 290.152 133.96 290.362 134.455 290.362C134.95 290.362 135.402 289.984 135.813 289.228C136.233 288.463 136.443 287.613 136.443 286.68C136.443 285.336 135.883 284.664 134.763 284.664C134.586 284.664 134.366 284.687 134.105 284.734C133.349 285.714 132.971 286.829 132.971 288.08Z" fill="#788195"/>
<path d="M22.5625 240V228.578H23.8906V238.812H28.9609V240H22.5625ZM38.1094 235.703C38.1094 236.406 38.0182 237.034 37.8359 237.586C37.6536 238.138 37.3906 238.604 37.0469 238.984C36.7031 239.365 36.2865 239.656 35.7969 239.859C35.3125 240.057 34.763 240.156 34.1484 240.156C33.5755 240.156 33.0495 240.057 32.5703 239.859C32.0964 239.656 31.6849 239.365 31.3359 238.984C30.9922 238.604 30.724 238.138 30.5312 237.586C30.3438 237.034 30.25 236.406 30.25 235.703C30.25 234.766 30.4089 233.969 30.7266 233.312C31.0443 232.651 31.4974 232.148 32.0859 231.805C32.6797 231.456 33.3854 231.281 34.2031 231.281C34.9844 231.281 35.6667 231.456 36.25 231.805C36.8385 232.154 37.2943 232.659 37.6172 233.32C37.9453 233.977 38.1094 234.771 38.1094 235.703ZM31.5938 235.703C31.5938 236.391 31.6849 236.987 31.8672 237.492C32.0495 237.997 32.3307 238.388 32.7109 238.664C33.0911 238.94 33.5807 239.078 34.1797 239.078C34.7734 239.078 35.2604 238.94 35.6406 238.664C36.026 238.388 36.3099 237.997 36.4922 237.492C36.6745 236.987 36.7656 236.391 36.7656 235.703C36.7656 235.021 36.6745 234.432 36.4922 233.938C36.3099 233.438 36.0286 233.052 35.6484 232.781C35.2682 232.51 34.776 232.375 34.1719 232.375C33.2812 232.375 32.6276 232.669 32.2109 233.258C31.7995 233.846 31.5938 234.661 31.5938 235.703ZM44.2422 231.281C44.4141 231.281 44.5938 231.292 44.7812 231.312C44.9688 231.328 45.1354 231.352 45.2812 231.383L45.1172 232.586C44.9766 232.549 44.8203 232.521 44.6484 232.5C44.4766 232.479 44.3151 232.469 44.1641 232.469C43.8203 232.469 43.4948 232.539 43.1875 232.68C42.8854 232.815 42.6198 233.013 42.3906 233.273C42.1615 233.529 41.9818 233.839 41.8516 234.203C41.7214 234.562 41.6562 234.964 41.6562 235.406V240H40.3516V231.438H41.4297L41.5703 233.016H41.625C41.8021 232.698 42.0156 232.409 42.2656 232.148C42.5156 231.883 42.8047 231.672 43.1328 231.516C43.4661 231.359 43.8359 231.281 44.2422 231.281ZM50.1953 231.281C50.9245 231.281 51.5495 231.443 52.0703 231.766C52.5911 232.089 52.9896 232.542 53.2656 233.125C53.5417 233.703 53.6797 234.38 53.6797 235.156V235.961H47.7656C47.7812 236.966 48.0312 237.732 48.5156 238.258C49 238.784 49.6823 239.047 50.5625 239.047C51.1042 239.047 51.5833 238.997 52 238.898C52.4167 238.799 52.849 238.654 53.2969 238.461V239.602C52.8646 239.794 52.4349 239.935 52.0078 240.023C51.5859 240.112 51.0859 240.156 50.5078 240.156C49.6849 240.156 48.9661 239.99 48.3516 239.656C47.7422 239.318 47.2682 238.823 46.9297 238.172C46.5911 237.521 46.4219 236.724 46.4219 235.781C46.4219 234.859 46.5755 234.062 46.8828 233.391C47.1953 232.714 47.6328 232.193 48.1953 231.828C48.763 231.464 49.4297 231.281 50.1953 231.281ZM50.1797 232.344C49.487 232.344 48.9349 232.57 48.5234 233.023C48.112 233.477 47.8672 234.109 47.7891 234.922H52.3203C52.3151 234.411 52.2344 233.964 52.0781 233.578C51.9271 233.188 51.6953 232.885 51.3828 232.672C51.0703 232.453 50.6693 232.344 50.1797 232.344ZM65.1797 231.281C66.1224 231.281 66.8333 231.529 67.3125 232.023C67.7917 232.513 68.0312 233.302 68.0312 234.391V240H66.75V234.453C66.75 233.76 66.599 233.242 66.2969 232.898C66 232.549 65.5573 232.375 64.9688 232.375C64.1406 232.375 63.5391 232.615 63.1641 233.094C62.7891 233.573 62.6016 234.279 62.6016 235.211V240H61.3125V234.453C61.3125 233.99 61.2448 233.604 61.1094 233.297C60.9792 232.99 60.7812 232.76 60.5156 232.609C60.2552 232.453 59.9245 232.375 59.5234 232.375C58.9557 232.375 58.5 232.492 58.1562 232.727C57.8125 232.961 57.5625 233.31 57.4062 233.773C57.2552 234.232 57.1797 234.797 57.1797 235.469V240H55.8828V231.438H56.9297L57.125 232.648H57.1953C57.3672 232.352 57.5833 232.102 57.8438 231.898C58.1042 231.695 58.3958 231.542 58.7188 231.438C59.0417 231.333 59.3854 231.281 59.75 231.281C60.401 231.281 60.9453 231.404 61.3828 231.648C61.8255 231.888 62.1458 232.255 62.3438 232.75H62.4141C62.6953 232.255 63.0807 231.888 63.5703 231.648C64.0599 231.404 64.5964 231.281 65.1797 231.281ZM75.0469 240V228.578H76.375V240H75.0469ZM83.3438 231.281C84.4115 231.281 85.263 231.648 85.8984 232.383C86.5339 233.117 86.8516 234.221 86.8516 235.695C86.8516 236.669 86.7057 237.487 86.4141 238.148C86.1224 238.81 85.7109 239.31 85.1797 239.648C84.6536 239.987 84.0312 240.156 83.3125 240.156C82.8594 240.156 82.4609 240.096 82.1172 239.977C81.7734 239.857 81.4792 239.695 81.2344 239.492C80.9896 239.289 80.7865 239.068 80.625 238.828H80.5312C80.5469 239.031 80.5651 239.276 80.5859 239.562C80.612 239.849 80.625 240.099 80.625 240.312V243.828H79.3203V231.438H80.3906L80.5625 232.703H80.625C80.7917 232.443 80.9948 232.206 81.2344 231.992C81.474 231.773 81.7656 231.602 82.1094 231.477C82.4583 231.346 82.8698 231.281 83.3438 231.281ZM83.1172 232.375C82.5234 232.375 82.0443 232.49 81.6797 232.719C81.3203 232.948 81.0573 233.292 80.8906 233.75C80.724 234.203 80.6354 234.773 80.625 235.461V235.711C80.625 236.435 80.7031 237.047 80.8594 237.547C81.0208 238.047 81.2839 238.427 81.6484 238.688C82.0182 238.948 82.513 239.078 83.1328 239.078C83.6641 239.078 84.1068 238.935 84.4609 238.648C84.8151 238.362 85.0781 237.964 85.25 237.453C85.4271 236.938 85.5156 236.346 85.5156 235.68C85.5156 234.669 85.3177 233.867 84.9219 233.273C84.5312 232.674 83.9297 232.375 83.1172 232.375ZM94.6562 237.656C94.6562 238.203 94.5182 238.664 94.2422 239.039C93.9714 239.409 93.5807 239.688 93.0703 239.875C92.5651 240.062 91.9609 240.156 91.2578 240.156C90.6589 240.156 90.1406 240.109 89.7031 240.016C89.2656 239.922 88.8828 239.789 88.5547 239.617V238.422C88.9036 238.594 89.3203 238.75 89.8047 238.891C90.2891 239.031 90.7839 239.102 91.2891 239.102C92.0286 239.102 92.5651 238.982 92.8984 238.742C93.2318 238.503 93.3984 238.177 93.3984 237.766C93.3984 237.531 93.3307 237.326 93.1953 237.148C93.0651 236.966 92.8438 236.792 92.5312 236.625C92.2188 236.453 91.7865 236.266 91.2344 236.062C90.6875 235.854 90.2135 235.648 89.8125 235.445C89.4167 235.237 89.1094 234.984 88.8906 234.688C88.6771 234.391 88.5703 234.005 88.5703 233.531C88.5703 232.807 88.862 232.253 89.4453 231.867C90.0339 231.477 90.8047 231.281 91.7578 231.281C92.2734 231.281 92.7552 231.333 93.2031 231.438C93.6562 231.536 94.0781 231.672 94.4688 231.844L94.0312 232.883C93.6771 232.732 93.2995 232.604 92.8984 232.5C92.4974 232.396 92.0885 232.344 91.6719 232.344C91.0729 232.344 90.612 232.443 90.2891 232.641C89.9714 232.839 89.8125 233.109 89.8125 233.453C89.8125 233.719 89.8854 233.938 90.0312 234.109C90.1823 234.281 90.4219 234.443 90.75 234.594C91.0781 234.745 91.5104 234.922 92.0469 235.125C92.5833 235.323 93.0469 235.529 93.4375 235.742C93.8281 235.951 94.1276 236.206 94.3359 236.508C94.5495 236.805 94.6562 237.188 94.6562 237.656ZM103.812 231.438V240H102.75L102.562 238.797H102.492C102.315 239.094 102.086 239.344 101.805 239.547C101.523 239.75 101.206 239.901 100.852 240C100.503 240.104 100.13 240.156 99.7344 240.156C99.0573 240.156 98.4896 240.047 98.0312 239.828C97.5729 239.609 97.2266 239.271 96.9922 238.812C96.763 238.354 96.6484 237.766 96.6484 237.047V231.438H97.9609V236.953C97.9609 237.667 98.1224 238.201 98.4453 238.555C98.7682 238.904 99.2604 239.078 99.9219 239.078C100.557 239.078 101.062 238.958 101.438 238.719C101.818 238.479 102.091 238.128 102.258 237.664C102.424 237.195 102.508 236.622 102.508 235.945V231.438H103.812ZM115.852 231.281C116.794 231.281 117.505 231.529 117.984 232.023C118.464 232.513 118.703 233.302 118.703 234.391V240H117.422V234.453C117.422 233.76 117.271 233.242 116.969 232.898C116.672 232.549 116.229 232.375 115.641 232.375C114.812 232.375 114.211 232.615 113.836 233.094C113.461 233.573 113.273 234.279 113.273 235.211V240H111.984V234.453C111.984 233.99 111.917 233.604 111.781 233.297C111.651 232.99 111.453 232.76 111.188 232.609C110.927 232.453 110.596 232.375 110.195 232.375C109.628 232.375 109.172 232.492 108.828 232.727C108.484 232.961 108.234 233.31 108.078 233.773C107.927 234.232 107.852 234.797 107.852 235.469V240H106.555V231.438H107.602L107.797 232.648H107.867C108.039 232.352 108.255 232.102 108.516 231.898C108.776 231.695 109.068 231.542 109.391 231.438C109.714 231.333 110.057 231.281 110.422 231.281C111.073 231.281 111.617 231.404 112.055 231.648C112.497 231.888 112.818 232.255 113.016 232.75H113.086C113.367 232.255 113.753 231.888 114.242 231.648C114.732 231.404 115.268 231.281 115.852 231.281ZM135.625 234.273C135.625 235.154 135.513 235.956 135.289 236.68C135.065 237.398 134.732 238.018 134.289 238.539C133.852 239.055 133.307 239.453 132.656 239.734C132.005 240.016 131.25 240.156 130.391 240.156C129.505 240.156 128.732 240.016 128.07 239.734C127.414 239.453 126.867 239.052 126.43 238.531C125.997 238.01 125.672 237.388 125.453 236.664C125.24 235.94 125.133 235.138 125.133 234.258C125.133 233.091 125.326 232.068 125.711 231.188C126.096 230.307 126.68 229.622 127.461 229.133C128.247 228.643 129.232 228.398 130.414 228.398C131.544 228.398 132.495 228.641 133.266 229.125C134.042 229.609 134.628 230.292 135.023 231.172C135.424 232.047 135.625 233.081 135.625 234.273ZM126.531 234.273C126.531 235.242 126.669 236.081 126.945 236.789C127.221 237.497 127.643 238.044 128.211 238.43C128.784 238.815 129.51 239.008 130.391 239.008C131.276 239.008 132 238.815 132.562 238.43C133.13 238.044 133.549 237.497 133.82 236.789C134.091 236.081 134.227 235.242 134.227 234.273C134.227 232.799 133.917 231.648 133.297 230.82C132.682 229.987 131.721 229.57 130.414 229.57C129.529 229.57 128.799 229.76 128.227 230.141C127.654 230.521 127.227 231.062 126.945 231.766C126.669 232.464 126.531 233.299 126.531 234.273ZM139.859 240L136.609 231.438H138L139.883 236.617C140.013 236.971 140.146 237.362 140.281 237.789C140.417 238.216 140.51 238.56 140.562 238.82H140.617C140.68 238.56 140.784 238.216 140.93 237.789C141.076 237.357 141.208 236.966 141.328 236.617L143.211 231.438H144.602L141.344 240H139.859ZM149.273 231.281C150.003 231.281 150.628 231.443 151.148 231.766C151.669 232.089 152.068 232.542 152.344 233.125C152.62 233.703 152.758 234.38 152.758 235.156V235.961H146.844C146.859 236.966 147.109 237.732 147.594 238.258C148.078 238.784 148.76 239.047 149.641 239.047C150.182 239.047 150.661 238.997 151.078 238.898C151.495 238.799 151.927 238.654 152.375 238.461V239.602C151.943 239.794 151.513 239.935 151.086 240.023C150.664 240.112 150.164 240.156 149.586 240.156C148.763 240.156 148.044 239.99 147.43 239.656C146.82 239.318 146.346 238.823 146.008 238.172C145.669 237.521 145.5 236.724 145.5 235.781C145.5 234.859 145.654 234.062 145.961 233.391C146.273 232.714 146.711 232.193 147.273 231.828C147.841 231.464 148.508 231.281 149.273 231.281ZM149.258 232.344C148.565 232.344 148.013 232.57 147.602 233.023C147.19 233.477 146.945 234.109 146.867 234.922H151.398C151.393 234.411 151.312 233.964 151.156 233.578C151.005 233.188 150.773 232.885 150.461 232.672C150.148 232.453 149.747 232.344 149.258 232.344ZM158.852 231.281C159.023 231.281 159.203 231.292 159.391 231.312C159.578 231.328 159.745 231.352 159.891 231.383L159.727 232.586C159.586 232.549 159.43 232.521 159.258 232.5C159.086 232.479 158.924 232.469 158.773 232.469C158.43 232.469 158.104 232.539 157.797 232.68C157.495 232.815 157.229 233.013 157 233.273C156.771 233.529 156.591 233.839 156.461 234.203C156.331 234.562 156.266 234.964 156.266 235.406V240H154.961V231.438H156.039L156.18 233.016H156.234C156.411 232.698 156.625 232.409 156.875 232.148C157.125 231.883 157.414 231.672 157.742 231.516C158.076 231.359 158.445 231.281 158.852 231.281ZM164.273 239.094C164.487 239.094 164.706 239.076 164.93 239.039C165.154 239.003 165.336 238.958 165.477 238.906V239.914C165.326 239.982 165.115 240.039 164.844 240.086C164.578 240.133 164.318 240.156 164.062 240.156C163.609 240.156 163.198 240.078 162.828 239.922C162.458 239.76 162.161 239.49 161.938 239.109C161.719 238.729 161.609 238.203 161.609 237.531V232.453H160.391V231.82L161.617 231.312L162.133 229.453H162.914V231.438H165.422V232.453H162.914V237.492C162.914 238.029 163.036 238.43 163.281 238.695C163.531 238.961 163.862 239.094 164.273 239.094ZM168.508 231.438V240H167.211V231.438H168.508ZM167.875 228.234C168.089 228.234 168.271 228.305 168.422 228.445C168.578 228.581 168.656 228.794 168.656 229.086C168.656 229.372 168.578 229.586 168.422 229.727C168.271 229.867 168.089 229.938 167.875 229.938C167.651 229.938 167.464 229.867 167.312 229.727C167.167 229.586 167.094 229.372 167.094 229.086C167.094 228.794 167.167 228.581 167.312 228.445C167.464 228.305 167.651 228.234 167.875 228.234ZM180.555 231.281C181.497 231.281 182.208 231.529 182.688 232.023C183.167 232.513 183.406 233.302 183.406 234.391V240H182.125V234.453C182.125 233.76 181.974 233.242 181.672 232.898C181.375 232.549 180.932 232.375 180.344 232.375C179.516 232.375 178.914 232.615 178.539 233.094C178.164 233.573 177.977 234.279 177.977 235.211V240H176.688V234.453C176.688 233.99 176.62 233.604 176.484 233.297C176.354 232.99 176.156 232.76 175.891 232.609C175.63 232.453 175.299 232.375 174.898 232.375C174.331 232.375 173.875 232.492 173.531 232.727C173.188 232.961 172.938 233.31 172.781 233.773C172.63 234.232 172.555 234.797 172.555 235.469V240H171.258V231.438H172.305L172.5 232.648H172.57C172.742 232.352 172.958 232.102 173.219 231.898C173.479 231.695 173.771 231.542 174.094 231.438C174.417 231.333 174.76 231.281 175.125 231.281C175.776 231.281 176.32 231.404 176.758 231.648C177.201 231.888 177.521 232.255 177.719 232.75H177.789C178.07 232.255 178.456 231.888 178.945 231.648C179.435 231.404 179.971 231.281 180.555 231.281ZM189.367 231.281C190.096 231.281 190.721 231.443 191.242 231.766C191.763 232.089 192.161 232.542 192.438 233.125C192.714 233.703 192.852 234.38 192.852 235.156V235.961H186.938C186.953 236.966 187.203 237.732 187.688 238.258C188.172 238.784 188.854 239.047 189.734 239.047C190.276 239.047 190.755 238.997 191.172 238.898C191.589 238.799 192.021 238.654 192.469 238.461V239.602C192.036 239.794 191.607 239.935 191.18 240.023C190.758 240.112 190.258 240.156 189.68 240.156C188.857 240.156 188.138 239.99 187.523 239.656C186.914 239.318 186.44 238.823 186.102 238.172C185.763 237.521 185.594 236.724 185.594 235.781C185.594 234.859 185.747 234.062 186.055 233.391C186.367 232.714 186.805 232.193 187.367 231.828C187.935 231.464 188.602 231.281 189.367 231.281ZM189.352 232.344C188.659 232.344 188.107 232.57 187.695 233.023C187.284 233.477 187.039 234.109 186.961 234.922H191.492C191.487 234.411 191.406 233.964 191.25 233.578C191.099 233.188 190.867 232.885 190.555 232.672C190.242 232.453 189.841 232.344 189.352 232.344Z" fill="white"/>
<rect x="14" y="12" width="187" height="203" rx="15" fill="white"/>
<path fill-rule="evenodd" clip-rule="evenodd" d="M90.556 69.1293C88.3681 69.5714 86.4042 71.09 85.4474 73.0796C84.6387 74.7606 84.6755 73.827 84.6755 92.6954V110.095L84.9784 111.071C85.7493 113.555 87.9546 115.608 90.4029 116.121C90.8837 116.222 98.3443 116.257 114.215 116.231L137.327 116.195L138.142 115.883C139.843 115.232 141.29 113.951 142.11 112.371C143.039 110.577 142.998 111.491 143 92.6676C143.001 80.8557 142.956 75.432 142.852 74.9218C142.437 72.8887 140.842 70.744 139.07 69.8374C137.324 68.9438 138.758 68.991 113.805 69.0055C101.319 69.0127 90.8569 69.0684 90.556 69.1293ZM136.722 75.355L137.122 75.7602V86.5431C137.122 92.4855 137.069 97.2669 137.005 97.1942C136.941 97.1217 134.86 94.6606 132.38 91.725C129.901 88.7893 127.644 86.185 127.365 85.9376C125.492 84.2781 122.641 84.2688 120.782 85.9161C120.49 86.1754 117.794 89.3727 114.792 93.0214L109.333 99.6553L108.834 99.1937C108.559 98.9397 107.596 98.0001 106.693 97.1059C104.581 95.0126 103.989 94.7035 102.112 94.7107C99.9636 94.7189 99.9323 94.741 94.8297 99.8849L90.4876 104.262V90.1471C90.4876 77.2102 90.5067 75.9996 90.716 75.6403C90.8417 75.4247 91.0724 75.1854 91.2289 75.1085C91.4165 75.0161 99.1435 74.9652 113.918 74.9591L136.322 74.9497L136.722 75.355ZM97.7701 78.0753C96.6746 78.3744 95.9764 78.7906 95.1343 79.6461C92.8973 81.9191 92.8434 85.4484 95.0102 87.771C96.2058 89.0527 97.5434 89.6454 99.24 89.6454C100.925 89.6454 102.275 89.0519 103.447 87.7951C104.299 86.8819 104.674 86.1496 104.933 84.892C105.794 80.7027 101.86 76.9587 97.7701 78.0753ZM76.6207 101.846C74.077 110.451 73.0608 114.084 73.0147 114.737C72.8343 117.292 74.3289 119.93 76.5871 121.042C77.3333 121.41 82.8313 122.952 99.8554 127.569C112.116 130.894 122.483 133.703 122.893 133.812C123.764 134.042 125.302 134.064 126.181 133.859C127.793 133.483 129.554 132.144 130.324 130.711C130.525 130.336 131.307 128.039 132.061 125.607C132.816 123.175 133.467 121.076 133.509 120.943C133.58 120.713 132.481 120.7 111.728 120.699C90.4485 120.698 89.8426 120.691 88.7473 120.425C84.7376 119.451 81.7712 116.476 80.6004 112.256C80.3169 111.235 80.3063 110.89 80.2354 100.535L80.1626 89.8654L76.6207 101.846Z" fill="#788195"/>
</svg>
