<svg width="354" height="177" viewBox="0 0 354 177" fill="none" xmlns="http://www.w3.org/2000/svg">
<rect width="354" height="177" rx="14" fill="#D9D9D9"/>
<path fill-rule="evenodd" clip-rule="evenodd" d="M161.39 67.6189C159.37 68.0332 157.557 69.4561 156.673 71.3204C155.926 72.8955 155.96 72.0207 155.96 89.7003V106.003L156.24 106.918C156.952 109.245 158.988 111.169 161.249 111.65C161.693 111.745 168.581 111.777 183.236 111.753L204.576 111.719L205.329 111.427C206.899 110.817 208.236 109.617 208.992 108.136C209.851 106.456 209.812 107.312 209.814 89.6741C209.816 78.6065 209.774 73.5246 209.678 73.0465C209.294 71.1415 207.821 69.1319 206.186 68.2825C204.573 67.4451 205.898 67.4894 182.857 67.5029C171.328 67.5097 161.668 67.5619 161.39 67.6189ZM204.017 73.4524L204.387 73.8321V83.9355C204.387 89.5036 204.338 93.9837 204.279 93.9156C204.22 93.8477 202.298 91.5416 200.009 88.7909C197.719 86.0402 195.635 83.6 195.378 83.3683C193.649 81.8133 191.015 81.8046 189.299 83.3481C189.029 83.591 186.54 86.5869 183.768 90.0057L178.728 96.2217L178.267 95.7891C178.013 95.5511 177.124 94.6707 176.291 93.8329C174.34 91.8715 173.794 91.5818 172.06 91.5885C170.077 91.5962 170.048 91.617 165.336 96.4368L161.327 100.538V87.3125C161.327 75.1907 161.345 74.0564 161.538 73.7197C161.654 73.5177 161.867 73.2935 162.011 73.2214C162.185 73.1349 169.319 73.0872 182.961 73.0815L203.648 73.0726L204.017 73.4524ZM168.051 76.0013C167.04 76.2815 166.395 76.6715 165.618 77.4731C163.552 79.6029 163.502 82.9098 165.503 85.0861C166.607 86.287 167.842 86.8424 169.409 86.8424C170.965 86.8424 172.211 86.2863 173.294 85.1087C174.08 84.253 174.426 83.5669 174.665 82.3885C175.461 78.4631 171.828 74.9551 168.051 76.0013ZM148.523 98.2746C146.174 106.337 145.236 109.741 145.193 110.353C145.027 112.747 146.407 115.219 148.492 116.261C149.181 116.605 154.258 118.05 169.977 122.377C181.297 125.492 190.87 128.124 191.249 128.226C192.053 128.442 193.473 128.463 194.285 128.27C195.773 127.918 197.399 126.664 198.11 125.32C198.296 124.969 199.018 122.817 199.714 120.538C200.411 118.26 201.012 116.293 201.051 116.168C201.117 115.952 200.102 115.941 180.94 115.94C161.291 115.939 160.731 115.932 159.72 115.683C156.018 114.77 153.279 111.983 152.198 108.029C151.936 107.071 151.926 106.749 151.861 97.0455L151.793 87.0485L148.523 98.2746Z" fill="white"/>
</svg>
